<?xml version="1.0" encoding="UTF-8"?>
<svg id="Calque_1" data-name="Calque 1" xmlns="http://www.w3.org/2000/svg" viewBox="0 0 384 384">
  <defs>
    <style>
      .cls-1 {
        fill: #fff;
      }
    </style>
  </defs>
  <path d="M384,75v1.5c-.42,1.9-3.72,6.75-5.62,6.75h-11.62l17.25,29.25v2.25c-.64,1.57-4.08,6-5.62,6h-12.38l18,36.75v2.25c-1.01,1.87-3.19,6-5.62,6h-31.88v139.12l37.5,70.12v2.25c-1.07,3.22-2.56,4.78-5.25,6.75H0v-9l123.03-229.84,3.52-1.73,128.87-.21,5.1,1.65,70.23,129.64v-108.75h-31.88c-2.7,0-6.27-5.71-5.5-8.44l17.87-36.56h-12.38c-2.11,0-7.01-6.42-5.33-9.03l16.96-28.47h-11.62c-1.76,0-6.31-5.48-5.58-7.81L331.63,7.26c3.62-5.82,10.34-5.81,13.99-.01l38.37,67.75ZM363,68.25l-24.38-42.76-24.38,42.76h12.38c2.11,0,7.01,6.42,5.33,9.03l-16.96,28.46c9.94-.79,18.84.35,14.38,12.51-3.93,10.71-12.12,21.47-15.88,32.49h50.25c-3.76-11.02-11.95-21.78-15.88-32.49-4.47-12.16,4.44-13.3,14.38-12.51l-16.96-28.46c-1.68-2.61,3.23-9.03,5.33-9.03h12.38ZM263.25,180.75l-12.38-22.5h-109.88l111.75,210.75h111l-59.61-111.76c-.57-.77-1.39-.68-2.22-.78-11.07-1.33-30.98,2.38-40.58-.67-8.87-2.81-4.88-14.29-.71-14.29h34.12c0-2.48-6.56-15.16-7.99-15.63l-57.07-.68c-4.06-2.5-5.43-8.29-1.74-11.86.68-.66,4.3-2.58,4.92-2.58h46.12l-7.99-14.88c-7.47-1.82-33.2,5.23-29.95-9.16.49-2.18,4.18-5.96,6.07-5.96h16.12ZM72.75,369l-12.07-45.38c-.24-3.83,3-5.77,5.3-8.26l54.76-47.99v-85.88L20.25,369h52.5ZM235.5,369l-99.75-186.75v88.12c14.22,32.75,28.81,65.55,42,98.62h57.75ZM162,369l-34.49-78-33.01,78h67.5ZM84.74,353.99l22.5-53.99-30.6,26.73,8.09,27.27Z"/>
  <path d="M59.18,0c13.18,6.38,1.51,16,.23,24.94-4.92,34.31,32.36,55.14,58.29,32.28,3.44-3.03,4.16-7.88,10.41-7.88,14.9.02,7.24,24.48,3.78,32.47C104.43,145.09,6.25,119.08,15.93,48.22,18.96,25.98,34.08,9.13,53.98,0h5.2ZM41.83,32.09c-1.21-1.49-3.85,4.17-4.21,4.89-24.7,48.28,42.98,88.66,74.44,44.95.17-2.29-.37-.88-1.48-.61-4.14.99-8.55,2.46-12.83,2.78-29.55,2.17-57.09-21.89-55.92-52.01Z"/>
  <path class="cls-1" d="M384,157.5l-18-36.75h12.38c1.54,0,4.98-4.43,5.62-6v42.75Z"/>
  <path class="cls-1" d="M384,112.5l-17.25-29.25h11.62c1.91,0,5.2-4.85,5.62-6.75v36Z"/>
  <path class="cls-1" d="M384,377.25v6.75h-5.25c2.69-1.97,4.18-3.53,5.25-6.75Z"/>
  <path class="cls-1" d="M363,68.25h-12.38c-2.11,0-7.01,6.42-5.33,9.03l16.96,28.46c-9.94-.79-18.84.35-14.38,12.51,3.93,10.71,12.12,21.47,15.88,32.49h-50.25c3.76-11.02,11.95-21.78,15.88-32.49,4.47-12.16-4.44-13.3-14.38-12.51l16.96-28.46c1.68-2.61-3.23-9.03-5.33-9.03h-12.38l24.38-42.76,24.38,42.76Z"/>
  <path class="cls-1" d="M41.83,32.09c-1.17,30.12,26.37,54.17,55.92,52.01,4.28-.31,8.7-1.79,12.83-2.78,1.11-.27,1.65-1.68,1.48.61-31.46,43.71-99.15,3.33-74.44-44.95.37-.72,3.01-6.38,4.21-4.89Z"/>
  <path d="M230.78,241.66c12.56-2.86,12.93,14.44,2.71,14.59-9.04.13-10.02-12.93-2.71-14.59Z"/>
</svg>