<svg version="1.1" baseProfile="basic" id="Calque_1"
	 xmlns="http://www.w3.org/2000/svg" xmlns:xlink="http://www.w3.org/1999/xlink" x="0px" y="0px" viewBox="0 0 32 32"
	 xml:space="preserve">
<path d="M8.85,3.16c2.19-1.54,4.81-2.33,7.48-2.27c2.64,0.05,5.19,1.02,7.19,2.74c0.29,0.24,0.33,0.67,0.09,0.97
	c-0.01,0.01-0.02,0.03-0.04,0.04c-0.14,0.15-0.33,0.23-0.53,0.24c-0.18,0.01-0.36-0.06-0.48-0.19c-1.75-1.51-3.97-2.37-6.28-2.43
	c-2.35-0.05-4.65,0.66-6.57,2.01C9.4,4.52,8.96,4.48,8.7,4.19C8.5,3.86,8.56,3.43,8.85,3.16z M6.59,8.54
	c2.27-3.23,6.03-5.08,9.98-4.9c5.48,0.1,9.06,5.13,9.45,5.71c0.23,0.3,0.18,0.73-0.12,0.96c-0.02,0.02-0.04,0.03-0.07,0.05
	c-0.11,0.09-0.24,0.14-0.38,0.14c-0.24,0.02-0.47-0.11-0.58-0.34c-0.14-0.19-3.43-4.99-8.3-5.08c-3.48-0.2-6.81,1.42-8.8,4.28
	c-0.24,0.32-0.7,0.38-1.02,0.13C6.46,9.26,6.39,8.85,6.57,8.54L6.59,8.54z M11.29,19.76c0.9,1.77,2.5,3.09,4.41,3.65
	c2.36,0.76,4.94,0.35,6.95-1.1c0.3-0.25,0.76-0.21,1.01,0.1c0.25,0.3,0.21,0.76-0.1,1.01c-1.57,1.23-3.53,1.87-5.52,1.82
	c-0.93-0.01-1.85-0.15-2.74-0.43c-2.3-0.64-4.22-2.22-5.28-4.36c-0.29-0.62-1.73-3.98,0.1-7.34c0.44-0.79,1.01-1.5,1.68-2.11
	c0.29-0.26,0.74-0.24,1.01,0.05c0.26,0.29,0.24,0.74-0.05,1.01c-0.54,0.53-1,1.12-1.37,1.77C9.83,16.55,11.15,19.47,11.29,19.76z
	 M17.37,22.14c-2.97-0.34-4.8-2.06-5.28-4.99c-0.17-1.22,0.15-2.46,0.91-3.43c0.62-0.91,1.6-1.52,2.69-1.68
	c0.48-0.04,0.97-0.01,1.44,0.1c1.73,0.53,2.83,1.53,2.97,2.78v0.05c0.05,0.58,0.29,2.4-1.29,2.74c-0.82,0.19-1.44-0.53-1.92-1.1
	c-0.14-0.14-0.29-0.34-0.43-0.48c-0.12,0.43-0.11,0.88,0.05,1.29c0.38,0.77,1.73,0.96,2.69,0.69c0.51-0.18,0.96-0.49,1.29-0.91
	c0.59-0.85,0.78-1.92,0.53-2.93c-0.33-1.17-1.1-2.17-2.16-2.78c-0.9-0.57-1.96-0.85-3.02-0.82c-0.58,0.05-1.15,0.19-1.68,0.43
	c-0.36,0.18-0.8,0.03-0.98-0.33s-0.03-0.8,0.33-0.98c0.71-0.34,1.47-0.53,2.25-0.58c1.36-0.08,2.71,0.29,3.84,1.06
	c1.37,0.82,2.37,2.15,2.78,3.69c0.36,1.42,0.08,2.92-0.77,4.11c-0.5,0.66-1.19,1.16-1.97,1.44c-1.53,0.48-3.65,0.1-4.41-1.37
	c-0.39-0.8-0.42-1.72-0.1-2.54c0.14-0.43,0.48-0.77,0.91-0.91c0.82-0.24,1.44,0.43,1.92,1.01c0.18,0.23,0.39,0.44,0.62,0.62
	c0.14-0.1,0.24-0.34,0.14-1.15v-0.1c-0.1-0.96-1.49-1.44-1.92-1.53c-0.28-0.09-0.58-0.1-0.86-0.05c-0.68,0.15-1.27,0.54-1.68,1.1
	c-0.52,0.65-0.77,1.47-0.69,2.3c0.18,2.11,1.92,3.74,4.03,3.79c2.35,0.24,5.32-1.29,5.9-3.12c0.91-2.88,0.43-4.56-0.91-6.76
	c-1.2-2.01-3.65-3.17-6.71-3.17h-0.05c-1.78-0.01-3.51,0.64-4.84,1.82c-1.57,1.39-2.57,3.3-2.83,5.37
	c-0.41,2.76,0.26,5.58,1.87,7.87c0.28,0.35,0.24,0.85-0.1,1.15c-0.38,0.15-0.81,0.04-1.06-0.29c-1.84-2.58-2.61-5.77-2.16-8.91
	c0.32-2.42,1.49-4.65,3.31-6.28c1.61-1.42,3.7-2.19,5.85-2.16c3.6,0.05,6.52,1.44,7.96,3.88c1.44,2.45,2.12,4.57,1.06,7.98
	C23.91,20.72,20.11,22.45,17.37,22.14z M4.44,17.7c-0.3-1.09-0.38-2.23-0.24-3.36c0.15-1.27,0.58-2.5,1.25-3.6
	c0.19-0.36,0.64-0.49,0.99-0.29c0.36,0.19,0.49,0.64,0.29,0.99c-0.01,0.02-0.03,0.04-0.04,0.07c-0.56,0.92-0.92,1.95-1.06,3.02
	c-0.1,0.94-0.04,1.89,0.19,2.81c0.11,0.36-0.1,0.74-0.47,0.85C5.34,18.2,5.32,18.2,5.3,18.2c-0.05,0-0.14,0.05-0.19,0.05
	C4.8,18.21,4.54,18,4.44,17.7z M10.96,28.54c-0.13,0.19-0.35,0.29-0.58,0.29c-0.16,0-0.31-0.05-0.43-0.14
	c-1.05-0.77-1.97-1.69-2.74-2.74c-1.23-1.71-2-3.71-2.25-5.8c-0.07-0.4,0.2-0.77,0.59-0.84c0.4-0.07,0.77,0.2,0.84,0.59
	c0,0.02,0.01,0.03,0.01,0.05c0.22,1.85,0.91,3.62,2.01,5.13c0.7,0.91,1.52,1.72,2.45,2.4C11.13,27.76,11.17,28.2,10.96,28.54z
	 M22.52,29.74c-1.7,0.88-3.57,1.35-5.48,1.37h-0.69c-1.3-0.1-2.58-0.41-3.78-0.94c-0.38-0.16-0.56-0.59-0.4-0.97
	c0.16-0.38,0.59-0.56,0.97-0.4l0,0c1.04,0.46,2.15,0.75,3.28,0.88c1.9,0.12,3.79-0.28,5.48-1.15c0.33-0.18,0.75-0.06,0.93,0.27
	c0.01,0.02,0.02,0.04,0.03,0.06C23,29.2,22.85,29.58,22.52,29.74z M24.9,26.14c-2.11,1.29-4.53,2-7,2.06
	c-0.38,0.01-0.77-0.01-1.15-0.05c-2.25-0.24-4.39-1.1-6.17-2.49c-0.32-0.24-0.38-0.69-0.14-1.01c0.24-0.32,0.69-0.38,1.01-0.14l0,0
	c1.57,1.22,3.44,1.98,5.42,2.21c2.55,0.18,5.1-0.44,7.28-1.77c0.33-0.21,0.77-0.11,0.98,0.22C25.33,25.49,25.23,25.93,24.9,26.14z
	 M27.79,16.66c-0.18,1.57-0.69,3.09-1.49,4.46c-0.13,0.23-0.36,0.37-0.62,0.38c-0.12,0-0.23-0.04-0.34-0.1
	c-0.34-0.17-0.48-0.58-0.31-0.92c0.01-0.01,0.01-0.03,0.02-0.04c0.71-1.19,1.15-2.51,1.29-3.88c0.15-1.17,0.09-2.36-0.19-3.5
	c-0.09-0.38,0.14-0.76,0.52-0.85c0.38-0.09,0.76,0.14,0.85,0.52C27.86,14.01,27.95,15.34,27.79,16.66z"/>
</svg>
