<?xml version="1.0" encoding="UTF-8"?>
<svg id="Calque_1" xmlns="http://www.w3.org/2000/svg" version="1.1" viewBox="0 0 32 32">
  <!-- Generator: Adobe Illustrator 30.0.0, SVG Export Plug-In . SVG Version: 2.1.1 Build 123)  -->
  <path d="M8.85,3.16c2.19-1.54,4.81-2.33,7.48-2.27,2.64.05,5.19,1.02,7.19,2.74.29.24.33.67.09.97-.01.01-.02.03-.04.04-.14.15-.33.23-.53.24-.18,0-.36-.06-.48-.19-1.75-1.51-3.97-2.37-6.28-2.43-2.35-.05-4.65.66-6.57,2.01-.31.24-.75.2-1.01-.1-.2-.33-.14-.76.14-1.02ZM6.59,8.54c2.27-3.23,6.03-5.08,9.98-4.9,5.48.1,9.06,5.13,9.45,5.71.23.3.18.73-.12.96-.02.02-.04.03-.07.05-.11.09-.24.14-.38.14-.24.02-.47-.11-.58-.34-.14-.19-3.43-4.99-8.3-5.08-3.48-.2-6.81,1.42-8.8,4.28-.24.32-.7.38-1.02.13-.29-.22-.37-.63-.18-.95h.02ZM11.29,19.76c.9,1.77,2.5,3.09,4.41,3.65,2.36.76,4.94.35,6.95-1.1.3-.25.76-.21,1.01.1s.21.76-.1,1.01c-1.57,1.23-3.53,1.87-5.52,1.82-.93,0-1.85-.15-2.74-.43-2.3-.64-4.22-2.22-5.28-4.36-.29-.62-1.73-3.98.1-7.34.44-.79,1.01-1.5,1.68-2.11.29-.26.74-.24,1.01.05s.24.74-.05,1.01c-.54.53-1,1.12-1.37,1.77-1.57,2.73-.25,5.66-.1,5.95ZM17.37,22.14c-2.97-.34-4.8-2.06-5.28-4.99-.17-1.22.15-2.46.91-3.43.62-.91,1.6-1.52,2.69-1.68.48-.04.97,0,1.44.1,1.73.53,2.83,1.53,2.97,2.78v.05c.05.58.29,2.4-1.29,2.74-.82.19-1.44-.53-1.92-1.1-.14-.14-.29-.34-.43-.48-.12.43-.11.88.05,1.29.38.77,1.73.96,2.69.69.51-.18.96-.49,1.29-.91.59-.85.78-1.92.53-2.93-.33-1.17-1.1-2.17-2.16-2.78-.9-.57-1.96-.85-3.02-.82-.58.05-1.15.19-1.68.43-.36.18-.8.03-.98-.33-.18-.36-.03-.8.33-.98.71-.34,1.47-.53,2.25-.58,1.36-.08,2.71.29,3.84,1.06,1.37.82,2.37,2.15,2.78,3.69.36,1.42.08,2.92-.77,4.11-.5.66-1.19,1.16-1.97,1.44-1.53.48-3.65.1-4.41-1.37-.39-.8-.42-1.72-.1-2.54.14-.43.48-.77.91-.91.82-.24,1.44.43,1.92,1.01.18.23.39.44.62.62.14-.1.24-.34.14-1.15v-.1c-.1-.96-1.49-1.44-1.92-1.53-.28-.09-.58-.1-.86-.05-.68.15-1.27.54-1.68,1.1-.52.65-.77,1.47-.69,2.3.18,2.11,1.92,3.74,4.03,3.79,2.35.24,5.32-1.29,5.9-3.12.91-2.88.43-4.56-.91-6.76-1.2-2.01-3.65-3.17-6.71-3.17h-.05c-1.78,0-3.51.64-4.84,1.82-1.57,1.39-2.57,3.3-2.83,5.37-.41,2.76.26,5.58,1.87,7.87.28.35.24.85-.1,1.15-.38.15-.81.04-1.06-.29-1.84-2.58-2.61-5.77-2.16-8.91.32-2.42,1.49-4.65,3.31-6.28,1.61-1.42,3.7-2.19,5.85-2.16,3.6.05,6.52,1.44,7.96,3.88s2.12,4.57,1.06,7.98c-.99,2.64-4.8,4.36-7.54,4.06ZM4.44,17.7c-.3-1.09-.38-2.23-.24-3.36.15-1.27.58-2.5,1.25-3.6.19-.36.64-.49.99-.29.36.19.49.64.29.99-.01.02-.03.04-.04.07-.56.92-.92,1.95-1.06,3.02-.1.94-.04,1.89.19,2.81.11.36-.1.74-.47.85-.02,0-.04.01-.06.01-.05,0-.14.05-.19.05-.31-.04-.57-.26-.67-.55ZM10.96,28.54c-.13.19-.35.29-.58.29-.16,0-.31-.05-.43-.14-1.05-.77-1.97-1.69-2.74-2.74-1.23-1.71-2-3.71-2.25-5.8-.07-.4.2-.77.59-.84s.77.2.84.59c0,.02,0,.03,0,.05.22,1.85.91,3.62,2.01,5.13.7.91,1.52,1.72,2.45,2.4.28.29.32.73.1,1.06ZM22.52,29.74c-1.7.88-3.57,1.35-5.48,1.37h-.69c-1.3-.1-2.58-.41-3.78-.94-.38-.16-.56-.59-.4-.97.16-.38.59-.56.97-.4h0c1.04.46,2.15.75,3.28.88,1.9.12,3.79-.28,5.48-1.15.33-.18.75-.06.93.27.01.02.02.04.03.06.14.34-.02.72-.35.88ZM24.9,26.14c-2.11,1.29-4.53,2-7,2.06-.38,0-.77,0-1.15-.05-2.25-.24-4.39-1.1-6.17-2.49-.32-.24-.38-.69-.14-1.01.24-.32.69-.38,1.01-.14h0c1.57,1.22,3.44,1.98,5.42,2.21,2.55.18,5.1-.44,7.28-1.77.33-.21.77-.11.98.22s.11.77-.22.98ZM27.79,16.66c-.18,1.57-.69,3.09-1.49,4.46-.13.23-.36.37-.62.38-.12,0-.23-.04-.34-.1-.34-.17-.48-.58-.31-.92,0-.01.01-.03.02-.04.71-1.19,1.15-2.51,1.29-3.88.15-1.17.09-2.36-.19-3.5-.09-.38.14-.76.52-.85.38-.09.76.14.85.52.33,1.28.42,2.62.26,3.93Z"/>
</svg>