<?xml version="1.0" encoding="UTF-8"?>
<svg id="Calque_1" data-name="Calque 1" xmlns="http://www.w3.org/2000/svg" xmlns:xlink="http://www.w3.org/1999/xlink" viewBox="0 0 2219.62 1455.33">
  <defs>
    <style>
      .cls-1 {
        stroke-dasharray: 2 4;
      }

      .cls-1, .cls-2, .cls-3, .cls-4, .cls-5, .cls-6, .cls-7, .cls-8, .cls-9, .cls-10, .cls-11 {
        fill: none;
      }

      .cls-1, .cls-2, .cls-3, .cls-5, .cls-6, .cls-7, .cls-8, .cls-9, .cls-10, .cls-11 {
        stroke: #1d1d1b;
      }

      .cls-1, .cls-2, .cls-3, .cls-6, .cls-7, .cls-8, .cls-9, .cls-10 {
        stroke-linecap: round;
        stroke-linejoin: round;
      }

      .cls-12 {
        fill: #1d1d1b;
      }

      .cls-3 {
        stroke-dasharray: 2.01 4.02;
      }

      .cls-5 {
        stroke-dasharray: 2 4;
      }

      .cls-5, .cls-11 {
        stroke-miterlimit: 10;
      }

      .cls-6 {
        stroke-dasharray: 1.99 3.98;
      }

      .cls-7 {
        stroke-dasharray: 1.99 3.99;
      }

      .cls-8 {
        stroke-dasharray: 2 4.01;
      }

      .cls-9 {
        stroke-dasharray: 2 4;
      }

      .cls-10 {
        stroke-dasharray: 2 4;
      }

      .cls-13 {
        clip-path: url(#clippath);
      }
    </style>
    <clipPath id="clippath">
      <rect class="cls-4" x="299.62" y="152.33" width="1920" height="1080"/>
    </clipPath>
  </defs>
  <g class="cls-13">
    <g>
      <g>
        <path class="cls-8" d="M229.18,78.34c14.29-7.58,30.94-11.29,46.39-4,14.63,6.9,24.8,22.38,25.34,38.55.93,27.85-23.06,49.04-41.14,70.25-21.57,25.31-36.67,63.01-18.86,91.1,5.83,9.19,14.56,16.17,21.07,24.9,14.69,19.7,17.82,52.31-1.17,67.91-23.6,19.4-30.3,1.36-52.19,18.6-25.15,19.81-18.05,46.39-43.6,65.68-18.32,13.84-40.19,22.93-62.91,26.18-12.99,1.85-26.95,1.64-38.34-4.89-18.65-10.7-24.75-34.62-25.98-56.08-2.21-38.53,5.12-79.33-11.24-114.28-6.1-13.03-15.25-24.54-20.41-37.97C-.82,246.1.09,225.96,1.44,206.53c1.57-22.66,3.69-45.64,11.85-66.83,8.16-21.2,23.22-40.71,44.22-49.36,35.31-14.53,68.73,6.35,104.07,6.79,9.02.11,17.89-1.06,26.77-2.49,6.49-1.04,12.54-3.57,18.89-4.92,2.92-.62,5.83-1.7,8.33-3.24,2.08-1.28,4.37-2.57,6.45-3.92,2.3-1.5,4.69-2.91,7.15-4.22Z"/>
        <path class="cls-2" d="M205.06,110.43c11.84-6.28,25.64-9.36,38.44-3.32,12.12,5.72,20.55,18.54,21,31.94.77,23.07-19.11,40.64-34.08,58.21-17.87,20.97-30.38,52.21-15.62,75.48,4.83,7.62,12.07,13.4,17.46,20.63,12.17,16.32,12.89,41.35-.97,56.27-6,6.46-14.01,10.62-21.26,15.64-21.81,15.11-36.93,38.21-58.1,54.19-15.18,11.46-33.3,19-52.13,21.69-10.77,1.54-22.33,1.36-31.76-4.05-15.45-8.87-20.51-28.68-21.53-46.47-1.83-31.93,4.24-65.73-9.31-94.69-5.05-10.79-12.64-20.33-16.91-31.46-5.78-15.07-5.03-31.76-3.91-47.86,1.3-18.77,3.06-37.81,9.82-55.37,6.76-17.56,19.24-33.73,36.64-40.89,29.26-12.04,56.95,5.26,86.23,5.63,7.48.09,14.82-.88,22.18-2.07,5.38-.87,10.39-2.96,15.65-4.07,2.42-.51,4.83-1.41,6.9-2.68,1.72-1.06,3.62-2.13,5.34-3.25,1.91-1.24,3.89-2.41,5.92-3.5Z"/>
        <path class="cls-2" d="M180.94,142.51c9.39-4.98,28.59-16.91,38.74-12.12,9.61,4.54,16.3,14.71,16.65,25.33.61,18.3-24.11,34.31-35.99,48.24-14.17,16.63-23.39,48.82-11.69,67.27,3.83,6.04,9.57,10.63,13.85,16.36,9.65,12.95,10.22,32.8-.77,44.63-4.76,5.13-11.11,8.42-16.86,12.41-17.29,11.98-29.29,30.3-46.08,42.98-12.04,9.09-26.41,15.07-41.34,17.2-8.54,1.22-17.71,1.08-25.19-3.21-12.25-7.03-16.27-22.75-17.07-36.85-1.45-25.32,3.37-52.13-7.38-75.1-4.01-8.56-10.02-16.13-13.41-24.95-4.59-11.95-3.99-25.19-3.1-37.96,1.03-14.89,2.42-29.99,7.79-43.92,5.36-13.93,15.26-26.75,29.06-32.43,23.2-9.55,45.16,4.17,68.38,4.46,5.93.07,11.76-.7,17.59-1.64,4.27-.69,8.24-2.35,12.42-3.23,1.92-.41,3.83-1.12,5.47-2.13,1.37-.84,2.87-1.69,4.24-2.58,1.51-.98,3.08-1.92,4.7-2.77Z"/>
        <path class="cls-2" d="M156.82,174.6c6.94-3.68,15.03-5.49,22.53-1.94,7.1,3.35,12.05,10.87,12.31,18.72.45,13.53-11.2,23.82-19.98,34.12-10.48,12.29-17.81,30.6-9.16,44.24,2.83,4.46,7.07,7.85,10.23,12.09,7.13,9.57,7.56,24.24-.57,32.98-3.52,3.79-8.21,6.22-12.46,9.17-12.78,8.85-21.65,22.39-34.06,31.77-8.9,6.72-19.52,11.14-30.56,12.71-6.31.9-13.09.8-18.62-2.37-9.06-5.2-12.02-16.81-12.62-27.24-1.07-18.71,2.49-38.53-5.46-55.5-2.96-6.33-7.41-11.92-9.91-18.44-3.39-8.83-2.95-18.61-2.29-28.05.76-11,1.79-22.16,5.76-32.46,3.96-10.29,11.28-19.77,21.48-23.97,17.15-7.06,33.38,3.08,50.54,3.3,4.38.06,8.69-.52,13-1.21,3.15-.51,6.09-1.73,9.18-2.39,1.42-.3,2.83-.83,4.04-1.57,1.01-.62,2.12-1.25,3.13-1.91,1.12-.73,2.28-1.42,3.47-2.05Z"/>
        <path class="cls-2" d="M132.7,206.69c4.49-2.38,9.72-3.55,14.58-1.26,4.6,2.17,7.79,7.03,7.96,12.11.29,8.75-16.09,13.16-21.77,19.82-6.78,7.95-11.52,19.8-5.93,28.62,1.83,2.89,4.58,5.08,6.62,7.82,4.62,6.19,13.73,17.94,8.48,23.59-2.28,2.45-5.31,4.03-8.06,5.93-8.27,5.73-14.01,14.49-22.03,20.55-5.76,4.35-12.63,7.21-19.77,8.23-4.08.58-8.47.52-12.05-1.54-5.86-3.36-7.78-10.88-8.17-17.62-.69-12.11,1.61-24.93-3.53-35.91-1.92-4.09-4.79-7.71-6.41-11.93-2.19-5.71-1.91-12.04-1.48-18.15.49-7.12,1.16-14.34,3.72-21,2.56-6.66,7.3-12.79,13.9-15.51,11.1-4.57,21.6,1.99,32.7,2.13,2.84.04,5.62-.33,8.41-.78,2.04-.33,3.94-1.12,5.94-1.54.92-.19,1.83-.53,2.62-1.02.65-.4,1.37-.81,2.03-1.23.72-.47,1.47-.92,2.25-1.33Z"/>
        <path class="cls-2" d="M108.58,238.77c2.04-1.08,4.42-1.61,6.62-.57,2.09.99,3.54,3.2,3.62,5.5.13,3.98-3.29,7-5.87,10.03-3.08,3.61-5.24,9-2.69,13.01.83,1.31,2.08,2.31,3.01,3.56,2.1,2.81,2.22,7.13-.17,9.7-1.03,1.11-2.41,1.83-3.66,2.7-3.76,2.6-6.36,6.58-10.01,9.34-2.62,1.98-5.74,3.27-8.98,3.74-1.86.26-3.85.23-5.47-.7-2.66-1.53-3.53-4.94-3.71-8.01-.32-5.5.73-11.33-1.6-16.32-.87-1.86-2.18-3.5-2.91-5.42-1-2.6-.87-5.47-.67-8.25.22-3.24.53-6.52,1.69-9.54,1.17-3.03,3.31-5.81,6.31-7.05,5.04-2.08,9.81.91,14.86.97,1.29.02,2.55-.15,3.82-.36.93-.15,1.79-.51,2.7-.7.42-.09.83-.24,1.19-.46.3-.18.62-.37.92-.56.33-.21.67-.42,1.02-.6Z"/>
      </g>
      <path class="cls-11" d="M854.24,38.84c-7.04-4.68-15.54-5.05-23.78-5.88-5.95-.6-11.9-1.13-17.88-1.29-10.14-.28-18.85,1.33-28.38,4.73-16.98,6.05-33.11,15.28-45.25,28.87-6.23,6.97-11.97,14.66-16.57,22.81-4.83,8.55-7.17,16.8-7.24,26.55-.05,7.34.49,13.8,2.75,20.89,2.81,8.78,6.75,16.73,10.3,25.21,16.24,38.7,23.57,84.21,2.39,122.53-20.34,36.81-59.75,58.94-85.25,92.38-21.28,27.89-32.01,62.75-35.36,97.67-2.69,28.05.52,59.6,21.28,78.65,21.79,20,54.73,19.41,83.24,27.28,53.46,14.77,91.85,59.91,130.41,99.78,33.68,34.82,115.54,108.11,164.52,62.44,7.06-6.58,12.81-14.11,19.09-21.41,5.19-6.02,10.24-11.94,14.29-18.82,3.64-6.18,6.43-12.82,9.45-19.31,3.3-7.09,5.73-13.32,7.31-20.9,1.77-8.48,2.96-16.83,3.6-25.48,1.09-14.87-3.6-28.8-7.84-42.89-2.95-9.8-6.33-19.17-10.48-28.52-4.39-9.9-7.79-20.02-11.46-30.21-6.13-17.03-13.55-33.65-18.39-51.14-5.43-19.61-10.26-38.94-13.58-59.05-1.25-7.58-2.6-15.18-3.26-22.84-.91-10.6-.24-21.5-.28-32.13-.04-10.78-.69-21.68.04-32.44.71-10.6,2.77-21.11,5.65-31.32,2.2-7.82,4.49-15.54,6.39-23.45,2.35-9.77,5.84-19.26,7.75-29.12,1.77-9.12,5.53-17.76,6.57-27.02,1.01-8.98,1.73-18.58.87-27.56-1.76-18.5-8.15-35.75-15.61-52.6-4.21-9.53-8.89-18.89-14.86-27.44-6.42-9.21-14.72-16.61-23.55-23.48-6.98-5.43-13.88-11.4-21.78-15.43-5.25-2.68-10.7-5.1-16.06-7.55-7.72-3.53-16.2-5.24-24-8.58-13.52-5.8-27.9-9.05-41.05-15.64-2.71-1.36-4.44-3.42-6.75-5.27-1.52-1.22-3.16-1.67-4.83-2.6-2.56-1.43-4.23-5.09-2.44-.41Z"/>
      <path class="cls-11" d="M93.56,905.78c35.69,3.36,72.98,20.65,90.92,48.97,19.2,30.31,17.48,68.7,18.51,104.56,1.03,35.86,7.83,75.93,36.86,97,24.33,17.66,57.59,16.6,86.83,9.58,29.23-7.02,57.44-19.22,87.42-21.54,9.1-.71,19.7.21,25.01,7.64,3.75,5.24,3.69,12.21,5.62,18.37,5.23,16.72,23.56,24.77,39.27,32.51,19.67,9.69,38.09,21.93,54.64,36.3,14.49,12.58,27.96,27.49,33.47,45.86,7.05,23.51-2.91,50.99-27.34,59.22-9.43,3.18-19.21,6.47-29.04,8.21-10.79,1.91-21.87,3.12-32.79,3.96-16.2,1.24-32.37,2.42-48.58,3.57-19.87,1.41-39.8,1.61-59.44,5.23-19.76,3.65-38.27,14.07-54.85,24.98-16.64,10.94-31.6,24.36-46.96,36.93-6.86,5.62-15.53,8.25-22.93,13.05-4.96,3.22-9.74,6.07-15.21,8.34-10.63,4.42-21.57,6.51-33.11,6.28-10.63-.21-23.2-3.9-32.07-9.65-4.61-2.99-9.12-6.28-13.39-9.72-4.26-3.43-8.56-6.52-11.55-11.16-8.21-12.72-8.82-27.58-13.75-41.48-6.24-17.6-11.31-35.52-16.72-53.39-5.5-18.14-12.69-35.83-24.46-50.9-8.92-11.42-22.2-18.98-27.68-32.86-3.29-8.34-4.57-17.35-5.94-26.16-1.25-8.04-1.99-15.75-2.03-23.88-.04-7.34.15-13.76,2.75-20.75,3.46-9.26,9.84-17.06,14.83-25.49,7.14-12.07,12.96-26.46,15.08-40.34,1.11-7.27,1.39-14.69,1.16-22.04-.09-2.95-.29-5.6-1.01-8.49-1.11-4.46-1.66-9.37-3.14-13.67-2.38-6.92-6.61-13.71-9.86-20.3-4.24-8.59-9.88-16.37-14.27-24.89-2.1-4.07-4.21-8.13-6.54-12.07-3.06-5.18-7.17-9.46-10.74-14.26-4.29-5.75-6.46-12.93-10.03-19.15-4.32-7.53-6.98-14.97-8.97-23.4-1.07-4.54-2.42-9.35-.44-13.85,1.12-2.55,3.09-4.36,4.85-6.42,2.39-2.79,3.93-5.74,6.05-8.65,2.6-3.57,6.99-6.35,10.92-8.24,4.26-2.05,8.42-5.22,13.08-6.18,11.09-2.29,23.24-2.8,35.58-1.63Z"/>
      <path class="cls-11" d="M200.5,667.16c.91-5.55,2.58-11.22,5.03-16.97,18.98-44.45,63.07-52.91,100.78-75.71,8.75-5.29,17.04-11.25,24.45-18.33,28.9-27.62,41-73.37,79.31-90.92,18.25-8.36,41.81-7.34,56.3,6.54,14.62,14.01,16.61,36.63,14.6,56.77-2.01,20.14-7.05,40.53-3,60.37,6.01,29.46,30.54,51.55,55.46,66.1,26.76,15.63,54.88,17.12,84.32,24.24,22.49,5.44,44.18,16.51,59.05,34.24,14.88,17.73,22.07,42.64,15.47,64.82-6.05,20.34-22.5,36.26-28.94,56.48-13.56,42.58,25.71,68.48,43.32,101.88,10.91,20.69,18.48,48.51,18.47,71.8,0,17.85-6.13,36.57-20.09,47.69-8.93,7.11-20.21,10.54-31.38,12.88-7.84,1.64-16.13,2.8-23.74.31-5.28-1.73-9.85-5.1-14.2-8.56-11.7-9.3-21.48-20.65-33.19-29.85-41.33-32.46-104.61-17.66-152.45-13.29-7.33.67-14.83,1.2-21.97-.57-20.87-5.18-39.2-31.17-43.95-51.36-6.8-28.85,3.43-58.84,1.36-88.14-1.51-21.36-7.73-42.95-21.25-59.56-36.74-45.11-103.88-53.92-144.37-95.42-15.82-16.22-22.72-35.08-19.4-55.44Z"/>
      <path class="cls-11" d="M1032.93,882.9c-7.06,1.15-12.79,1.71-19.6-.59-32.16-10.85-59.25-32.96-90-47.24-27.75-12.88-59.48-20.62-88.99-12.58-29.52,8.03-55.12,35.44-53.23,65.97,1.96,31.54,29.67,54.09,50.65,77.73,20.05,22.58,35.41,49.32,44.81,78.02,6.19,18.91,9.83,38.63,16.89,57.24,13.51,35.64,43.21,59.88,81.39,64.66,6.33.79,12.59.89,18.98.73,8.26-.21,15.48-4.21,22.87-7.49,7.36-3.27,14.86-5.5,21.34-10.45,5.88-4.5,10.4-10.43,14.67-16.42,3.38-4.74,5.58-10.38,8.41-15.48,3.8-6.87,6.67-14.74,8.09-22.48,1.49-8.15.83-16.49.84-24.72.02-14.3-2.12-27.77-5.13-41.7-1.35-6.23-2.46-12.16-4.63-18.17-2.32-6.43-4.79-12.84-7.19-19.25-2.28-6.09-4.21-12.39-6.62-18.42-1.74-4.36-3.81-8.45-5.22-12.95-4.64-14.82-12.58-29.42-13.45-45.21-.23-4.19.14-8.18.82-12.22.47-2.82,1.15-5.75,1.26-8.6.08-2.05-.03-4.13-.05-6.19-.02-1.68-.82-5.11,3.1-4.17Z"/>
      <path class="cls-11" d="M1028.05,1291.24c-.74-8.93.04-19.98-4.37-28.23-20.93-39.14-86.26-65.11-126.55-75.84-17.5-4.66-35.54-7.64-52.32-14.46-16.98-6.9-32.22-17.57-49.23-24.4-17.62-7.07-36.94-9.84-55.84-8.01-15.21,1.47-30.71,6.24-41.67,16.88-17.72,17.2-19.42,44.86-17.39,69.47,2.03,24.61,6.47,50.36-2.75,73.27-4.97,12.35-13.61,22.91-19.1,35.04-8.69,19.21-3.86,35.85,11.7,49.18,7.3,6.26,15.24,9.09,24.4,11.26,2.65.63,5.07,1.5,7.66,2.36,4.63,1.54,8.43,1.84,13.27,1.79,10.13-.1,20.63-1.17,30.47-3.7,6.81-1.76,12.9-3.99,19.96-4.66,7.01-.66,13.62-1.81,20.55-3.14,12.18-2.35,24.13-3.6,36.5-4.34,6.21-.37,12.4-.25,18.62-.27,5.17-.02,10.53-.49,15.68.11,9.56,1.13,19.12,3.36,28.71,3.89,8.34.46,16.48,1.49,24.71,2.77,11.66,1.81,23.9,2.24,35.68,2.22,4.48,0,9.03.16,13.5-.24,8.38-.73,15.86-3.48,23.46-6.96,4.9-2.24,7.78-4.42,11.86-7.8,4.31-3.57,9.12-6.35,13.61-9.69,8.69-6.46,16.34-13.53,19.69-24.12,2.44-7.72,3.21-15.31,4.27-23.25.76-5.71.44-12.14.24-17.93-.18-5.31-2.22-12.49-5.19-16.95-.4.44-.45.97-.13,5.76Z"/>
      <path class="cls-11" d="M596.12,12.13c14.29,6.13,26.9,14.9,36.82,26.84,25.19,30.31,58.42,84.75,52.8,125.5-6.52,47.32-59.16,76.2-71.33,122.39-6.16,23.36-1.08,48.12-3.06,72.2-1.98,24.08-15.35,50.96-39.29,54.24-17.74,2.43-34.23-9.07-47.46-21.13-13.23-12.07-26.36-25.91-43.81-29.94-25.98-6-53.42,11.72-79.09,4.51-20.22-5.68-34.11-28.2-30.11-48.82,3.55-18.28,18.33-31.87,28.94-47.17,18.88-27.24,24.96-62.97,16.17-94.93-7.02-25.52-22.67-47.74-32.7-72.23-4.52-11.03-7.92-23.12-5.48-34.79,3.64-17.43,19.23-29.63,34.75-38.35,46.16-25.92,127.21-42.18,182.85-18.31Z"/>
      <path class="cls-5" d="M522.32,111.15c-.34.01-.69.02-1.03.04-15.81.54-29.65,8.15-36.65,22.88-1.49,3.13-3.32,6.14-4.44,9.43-1.26,3.72-2.39,7.45-3.28,11.28-1.04,4.46-1.46,8.27-1.27,12.89.15,3.7,2.75,6.81,5.49,9.06,14.85,12.18,39.09-2.12,54.55-5.04,12.85-2.42,26.07.26,39.13-.16,13.06-.43,27.56-5.27,33.01-17.15,6.39-13.91-3.38-30.93-16.99-37.92-13.61-6.99-29.68-6.63-44.97-6.1-7.85.27-15.7.54-23.54.81Z"/>
      <path class="cls-11" d="M612.43,103.16c-.04.46.04.93.24,1.33.72,1.4,2.26,2.12,3.61,2.94,9.51,5.82,11.05,18.89,10.46,30.02-.67,12.61-3.37,26.28-13.01,34.45-9.2,7.79-22.18,8.55-34.04,10.71-16.6,3.03-32.54,9.56-46.54,18.98-12.59,8.48-23.13,20.39-38.35,24.31-5.52,1.42-10.38,1.41-16.04,1.45-4.69.03-9.59.37-14.06-1.39-17.04-6.71-19.62-20.89-17.92-37.17,2.43-23.29,3.14-46.54,1.15-69.89-.38-4.41-.83-8.91.16-13.22,1.86-8.05,8.5-14.19,15.69-18.26,18.17-10.29,40.33-10.18,61.1-7.96,30.62,3.28,60.8,10.56,89.55,21.6-1.11-.17-1.89.93-1.98,2.08Z"/>
      <path class="cls-11" d="M619.49,83.03c22.75,12.69,36.18,41.5,29.27,66.86-5.51,20.23-21.48,35.87-38.27,48.42-16.79,12.56-35.24,23.27-49.38,38.76-12.97,14.2-22.16,32.26-38.14,42.97-13.78,9.23-31.82,11.78-47.62,6.72-15.79-5.06-29-17.62-34.85-33.14-7.82-20.77-2.57-43.85-2.73-66.05-.17-24.4-7.2-48.72-20.07-69.45-2.6-4.19-5.51-8.42-6.21-13.3-1.48-10.24,11.69-17.23,18.82-22,9.53-6.39,20.23-9.42,31.48-10.87,15.49-2.01,31.05-3.11,46.67-3.12,7.59,0,15.19-.15,22.79-.13,8.6.02,16.36,1.43,24.73,3.28,17.82,3.95,36.6,1.25,54.1,6.94,3.28,1.07,6.42,2.45,9.4,4.11Z"/>
      <path class="cls-11" d="M586.47,299.99c-.05.64-.11,1.29-.18,1.92-1.68,16.47-1.65,30.96-.73,47.39.24,4.25.3,8.68-1.44,12.58-1.83,4.1-5.46,7.14-9.39,9.3-4.58,2.52-9.85,4.05-15.04,3.39-5.18-.66-10.2-3.77-12.31-8.55-2.39-5.42-.77-11.66.52-17.45,4.03-18.1-3.08-55.56,21.48-61.48,6.67-1.61,15.05,1.28,16.78,7.92.42,1.62.42,3.3.3,4.98Z"/>
      <path class="cls-11" d="M552.95,123.58c-.2-.08-.39-.17-.59-.25-11.08-2.28-23.34-2.11-32.82,4.07-10.21,6.66-17.53,25.86-3.43,31.19,12.82,4.85,29.03-6.67,42.51-4.18,5.68,1.05,11.43,3.19,17.06,1.94,6.68-1.48,11.64-7.72,12.98-14.43.71-3.55.43-7.56-1.9-10.32-3.57-4.22-10-3.85-15.52-4.02-6.27-.19-12.51-1.55-18.29-4Z"/>
      <path class="cls-11" d="M422.03,281.69c-1.08.96-1.77,2.73-2.25,4.2-2.36,7.14-7.5,12.96-12.4,18.68-4.89,5.71-9.8,11.82-11.51,19.15-1.71,7.33.78,16.19,7.54,19.48,5.42,2.65,11.84,1.14,17.77.06,10.87-1.99,22.02-2.39,33-1.19,3.23.35,6.56.84,9.69-.04s6.03-3.57,5.96-6.82c-.12-5.27-6.85-7.28-12.1-7.8-10.25-1.01-20.29.13-25.86-10.13-5.05-9.36-4.05-20.56-4.73-30.98-.15-2.23-.85-5.09-3.08-5.32-.8-.08-1.47.2-2.03.71Z"/>
      <path class="cls-11" d="M408.01,352.86c1.59.03,3.2-.07,4.79-.16,13.02-.77,26.03-1.55,39.05-2.32,8.13-.48,16.86-1.19,23.15-6.37,3.85-3.17,6.45-8.39,5.06-13.18-1.31-4.47-5.67-7.39-10.09-8.89-4.41-1.5-9.14-1.98-13.49-3.66-8.48-3.28-16.58-12.6-16.87-22.09-.14-4.45-.05-8.93-.02-13.38.07-10.8-10.61-18.28-20.51-13.03-5.71,3.03-9.4,8.75-12.79,14.25-7.51,12.16-14.99,24.83-17.1,38.96-.87,5.86-.76,12,1.43,17.5,2.2,5.5,6.71,10.27,12.44,11.76,1.61.42,3.27.58,4.94.6Z"/>
      <path class="cls-11" d="M274.59,44.48c29.3,4.26,52.02,31.32,56.82,60.53,4.81,29.22-5.82,59.36-23.08,83.41-13.29,18.51-31.23,36.03-32.89,58.76-1.63,22.49,13.31,42.37,20.89,63.61,9.87,27.66,6.36,60.57-12.01,83.48-21.82,27.2-59.55,36.59-84.08,61.38-12.66,12.79-21.58,29.48-36.53,39.5-10.38,6.96-22.79,10.08-34.92,13.08-14.97,3.7-29.93,7.4-44.9,11.1"/>
      <path class="cls-11" d="M331.25,67.66c12.28,16.94,16.8,38.76,14.79,59.58-2.01,20.82-10.18,40.7-21.22,58.47-12.52,20.17-29.28,39.24-32.07,62.82-2.38,20.12,5.95,39.73,12.7,58.83,5.76,16.3,10.51,33.16,11.17,50.44.66,17.27-3.05,35.11-12.96,49.28-12.18,17.4-57.96,27.58-74.94,40.35-23.32,17.53,1.83,36.52-28.79,59.06-31.58,23.26-103.98,26.7-132.54,20.77"/>
      <path class="cls-11" d="M338.09,243.8c4.26-10.04,10.78-18.98,17.96-27.19,3.95-4.52,8.17-8.92,10.92-14.25,3.27-6.35,4.26-13.67,7.38-20.1,3.12-6.43,9.68-12.24,16.68-10.84,5.09,1.02,8.81,5.61,10.55,10.5,3.64,10.24.29,21.62-4.27,31.49-8.27,17.9-20.43,33.74-29.46,51.27-9.04,17.53-14.91,38.04-9.32,56.95,1.92,6.5,5.12,12.56,7.04,19.05,1.14,3.86,1.81,7.85,2.41,11.83.6,4.02,1.1,8.24-.26,12.08-1.37,3.83-5.2,7.1-9.22,6.43-3.19-.53-5.6-3.38-6.61-6.46-1.01-3.08-.91-6.39-.87-9.63.16-15.88-1.73-31.77-5.57-47.17-1.98-7.94-4.48-15.74-7.48-23.35-1.96-4.97-4.44-9.56-4.78-14.96-.55-8.7,1.52-17.69,4.9-25.65Z"/>
      <path class="cls-11" d="M378.64,197.45c.45-2.66.69-5.42,1.86-7.86,1.17-2.44,3.57-4.53,6.26-4.37,3.75.22,5.93,4.42,6.48,8.14,1.74,11.66-4.83,22.94-12.37,32-7.54,9.07-16.47,17.38-20.99,28.28-1.39,3.35-2.41,7.01-4.96,9.58-2.55,2.57-7.36,3.38-9.58.51-1.03-1.33-1.25-3.11-1.33-4.79-.59-11.96,3.67-25.23,14.55-30.83,10.92-5.62,18.09-18.89,20.07-30.66Z"/>
      <path class="cls-11" d="M912.26,320.39c-3.05-1.81-6.75-2.81-11.2-2.76-14,.16-22.84,7.42-23,21.19-.18,15.78-.6,32.35-9.87,45.8-9.18,13.32-23.54,21.7-37.78,28.68-15.27,7.48-60.15,23.96-51.22,48.22,2.34,6.35,9.16,10.23,15.91,10.75,6.74.51,13.39-1.79,19.49-4.71,19.28-9.22,36.98-25.85,59.39-26.29,3.28-.06,6.7.3,9.48,2.04,4.47,2.81,6.23,8.59,5.99,13.86-.48,10.92-6.12,20.94-7.04,31.8-1.52,17.91,11.76,35.2,29.29,38.71,12.02,2.41,25.15-1.83,33.5-10.8,7.49-8.05,10.96-19.37,10.53-30.36-.51-12.95-5.97-24.65-15.37-33.56-7.3-6.92-15.88-12.36-23.23-19.23-9.79-9.14-18.58-22.66-10.52-35.71,2.65-4.29,6.22-7.94,8.96-12.17,9.62-14.86,14.96-54.62-3.33-65.46Z"/>
      <path class="cls-11" d="M810.9,400.58c19.66-12.59,40.31-27.02,48.16-49.01,4.22-11.83,4.38-25.12,10.62-36.02,8.39-14.65,27.44-21.79,43.75-17.43,16.31,4.37,28.95,19.2,31.94,35.82,1.39,7.72.9,15.67-.46,23.39-2.96,16.82-10.04,32.9-20.46,46.44-1.81,2.34-3.82,5-3.39,7.93.56,3.78,4.71,5.68,8.09,7.49,52.26,28.01,47.24,141.51-24.56,130.85-10.92-1.62-22.2-5.26-29.41-13.63-10.36-12.02-9.39-29.88-6.71-45.52,1.05-6.15,2.12-13.08-1.56-18.11-2.9-3.98-8.19-5.65-13.11-5.36-4.92.29-9.56,2.27-14.01,4.37-12.83,6.08-25.32,13.62-39.33,15.91-14.01,2.29-30.45-2.31-36.85-14.99-16.49-32.68,24.8-57.72,47.3-72.13Z"/>
      <path class="cls-11" d="M823.89,366.55c-10.5,9.18-21.59,17.69-33.17,25.46-13.02,8.72-27.09,16.9-35.89,29.87-9.32,13.74-11.47,31.11-11.3,47.71.06,5.76.41,11.71,2.94,16.89,2.27,4.66,6.16,8.35,10.38,11.36,11.02,7.85,24.92,11.55,38.38,10.23,10.5-1.03,20.5-4.96,30.9-6.74,5.05-.86,10.5-1.16,15.02,1.24,5.91,3.13,8.7,9.92,11.02,16.18,5.64,15.18,12.06,31.48,25.79,40.06,11.63,7.26,26.22,7.45,39.91,6.57,11.93-.77,24.16-2.29,34.65-8.01,18.72-10.22,28.47-32.55,28.57-53.88.09-21.33-8.01-41.85-17.69-60.86-5.37-10.53-11.36-21.1-12.97-32.81-1.86-13.52,2.32-27.02,5.19-40.35,3.12-14.5,4.71-29.59,1.88-44.15-2.84-14.56-10.53-28.61-22.92-36.77-22.84-15.04-55.36-6.16-73.43,12.42-9.22,9.48-10.43,18.03-12.94,30.12-3.01,14.52-13.47,25.98-24.32,35.47Z"/>
      <path class="cls-11" d="M903.83,331.1c-2.69-1.59-6.38-.61-8.53,1.66-2.15,2.27-2.97,5.53-3.02,8.65-.05,3.13.59,6.22.97,9.32.67,5.44.51,11.15-1.76,16.14-2.54,5.59-7.63,10.09-8.58,16.16-.12.76-.16,1.57.17,2.26.38.79,1.17,1.3,1.96,1.67,5.23,2.47,12.12.61,15.39-4.16,4.36-6.36,1.95-15.02,3.5-22.57.76-3.72,2.5-7.17,3.63-10.79,1.62-5.19,1.83-15.06-3.73-18.35Z"/>
      <path class="cls-11" d="M799.45,464.71c-.76-.04-1.54-.15-2.17-.56-.63-.41-1.06-1.07-1.37-1.76-1.74-3.83-.26-8.52,2.54-11.66,2.8-3.14,6.69-5.06,10.5-6.85,4.28-2,29.71-16.51,28.65-4.77-.34,3.77-4.85,5.17-7.65,6.81-5.1,2.99-9.36,7.21-13.88,10.98-4.7,3.92-10.16,8.11-16.63,7.8Z"/>
      <path class="cls-11" d="M895.48,481.71c1.13-2.42,2.65-4.76,4.89-6.22,2.95-1.92,6.69-2.04,10.21-2.1,3.86-.06,7.73-.13,11.59-.19,4.67-.08,9.85.03,13.26,3.23.95.89,1.72,2.02,1.99,3.3.58,2.76-1.26,5.44-3.32,7.37s-4.51,3.58-5.79,6.09c-2.14,4.22-.35,9.57-2.27,13.88-2.43,5.44-9.55,6.86-15.48,6.28-6.87-.67-15.38-3.88-17.6-11.22-1.84-6.1-.09-14.84,2.52-20.41Z"/>
      <path class="cls-11" d="M827.41,63.46c-15.14.43-29.58,6.88-42.03,15.49-7.47,5.16-14.49,11.26-19.27,18.98-4.78,7.72-7.11,17.27-4.84,26.07.92,3.56,2.55,6.88,4.16,10.18,2.15,4.39,4.3,8.77,6.45,13.16,2.66,5.43,5.73,11.27,11.26,13.73,6.59,2.94,14.56-.13,19.68-5.22,5.12-5.09,8.14-11.85,11.58-18.19,1.2-2.21,2.53-4.46,4.57-5.92,2.18-1.57,4.94-2.08,7.61-2.32,9.03-.83,18.73.76,26.73-3.51,7.38-3.94,11.62-12.22,12.81-20.5,1.22-8.52,1.7-23.36-4.95-29.99-8.56-8.54-21.94-12.31-33.76-11.97Z"/>
      <path class="cls-11" d="M897.75,71.74c2.5,5.44,2.57,11.75,1.33,17.61-1.24,5.86-3.71,11.37-6.18,16.83-2.7,5.96-5.45,11.98-9.52,17.1-5.07,6.39-12.13,11.18-19.94,13.54-6.57,1.98-13.56,2.27-20.12,4.29-6.58,2.03-12.61,5.81-17.31,10.84-7.29,7.83-11.55,18.71-20.7,24.27-4.95,3.01-10.83,4.08-16.59,4.71-4.91.54-10,.77-14.69-.78-4.87-1.61-8.9-5.01-12.81-8.33-3.51-2.99-7.08-6.03-9.58-9.9-3.52-5.45-4.65-12.07-5.31-18.53-1.26-12.42-1.07-24.94-.88-37.42.01-.67.17-1.53.83-1.65.66-.13.52,1.34.04.87"/>
      <path class="cls-11" d="M943.91,89.47c.43,5.66.82,11.56-1.34,16.8-1.77,4.31-5.11,7.76-8.55,10.91-8.55,7.82-18.22,14.41-28.62,19.51-15.87,7.79-33.63,12.25-47.51,23.2-4.7,3.71-9.19,9-8.44,14.94.54,4.31,3.85,7.89,7.74,9.85,3.88,1.95,8.29,2.54,12.62,2.94,15.28,1.41,30.82.88,45.78,4.31,9.08,2.08,18.31,5.99,23.68,13.59,2.44,3.46,3.97,7.53,6.66,10.8,5.88,7.16,15.89,9.07,25.04,10.51"/>
      <path class="cls-11" d="M953.18,104.21c-4.63,14.17-12.31,27.88-24.45,36.53-9.69,6.9-21.44,10.08-32.46,14.54-2.8,1.13-5.65,2.41-7.74,4.6-2.09,2.19-3.27,5.51-2.14,8.31,1.12,2.78,4.08,4.32,6.92,5.26,7.73,2.57,16.05,2.48,24.19,2.34,8.14-.15,16.45-.31,24.22,2.12,7.77,2.43,15.05,7.97,17.35,15.79"/>
      <path class="cls-11" d="M807.76,193.29c2.87-.73,5.85-1.32,8.79-.91,2.93.42,5.85,2.01,7.14,4.68,2.52,5.19-1.76,12.15,1.53,16.89.86,1.24,2.17,2.17,2.79,3.54,1.32,2.93-1.01,6.12-3.2,8.47-5.81,6.23-11.82,12.36-18.84,17.17-7.03,4.81-15.2,8.27-23.71,8.57-6.02.21-12.67-1.57-15.92-6.64-1.38-2.15-2.01-4.69-2.58-7.18-1.7-7.49-3.03-15.07-3.97-22.69-.78-6.34-2.33-10.86,5.04-11.66,15.12-1.63,28.26-6.53,42.93-10.25Z"/>
      <path class="cls-11" d="M802.84,202.19c1.62-.4,3.55-.71,4.77.42.7.65.98,1.64.99,2.59.02,1.97-.96,3.79-1.51,5.69-.55,1.89-.51,4.26,1.06,5.45.61.47,1.38.69,2.03,1.1,1.91,1.2,2.44,3.87,1.8,6.03-.64,2.16-2.19,3.91-3.77,5.53-5.57,5.7-12.38,10.8-20.3,11.72-14.03,1.64-22.15-10.97-17.17-23.55,4.11-10.39,22.69-12.63,32.09-14.97Z"/>
      <path class="cls-11" d="M880.08,665.12c9.8,11.83,22.3,21.09,34.66,30.21,10.62,7.84,21.5,15.82,34.08,19.82,7.71,2.45,15.84,3.33,23.91,3.88,5.56.38,11.24.59,16.63-.86,5.68-1.53,10.7-4.83,15.61-8.07,5.88-3.89,11.96-7.97,15.59-14.02,2.6-4.34,3.74-9.37,4.8-14.32,4.49-21.11,8.08-42.57,7.58-64.14-.5-21.57-5.3-43.41-16.57-61.81-3.72-6.07-9.78-12.41-16.74-10.9-4.62,1-7.9,5.39-8.95,10-1.05,4.6-.27,9.41.66,14.04,2.49,12.33,6.08,24.44,7.94,36.88,1.86,12.44,1.91,25.47-2.54,37.24-4.45,11.77-13.97,22.1-26.18,25.1-11.77,2.9-24.23-1.22-34.67-7.38-10.44-6.16-19.58-14.32-29.94-20.62-10.88-6.62-29.27-14.08-41.18-5.62-6.46,4.59-2.31,8.84,1.73,13.4,4.85,5.48,8.92,11.54,13.58,17.17Z"/>
      <path class="cls-11" d="M1011.02,574.95c-1.35-1.36-3.57-2.67-5-1.39-.63.56-.83,1.45-.96,2.28-1.69,10.27,1.61,20.61,3.86,30.77,3.1,14.01,4.21,28.83.1,42.57-4.11,13.75-14.14,26.26-27.8,30.63-10.73,3.43-22.56,1.59-33.02-2.58-10.46-4.17-19.88-10.53-29.45-16.47-2.62-1.63-5.38-3.26-8.44-3.55-3.07-.29-6.53,1.19-7.52,4.11-1.4,4.14,2.59,8.02,6.27,10.39,6.64,4.28,13.77,7.8,21.2,10.49,4.81,1.74,9.76,3.13,14.46,5.15,3.98,1.71,7.77,3.87,11.87,5.28,13.67,4.72,29.42.31,40.49-9,11.06-9.31,17.86-22.89,21.46-36.89,5.87-22.82,10.77-53.35-7.51-71.79Z"/>
      <path class="cls-11" d="M950.42,642.68c-21.82-17.69-49.96-27.41-78.04-26.95-10.57.17-22.51,2.6-28.06,11.59-6.25,10.12-1.35,23.36,4.99,33.43,23.69,37.64,65.19,61.04,107.99,73.1"/>
      <g>
        <path class="cls-2" d="M79.82,936.49c.33-.02.67-.04,1-.06"/>
        <path class="cls-10" d="M84.82,936.26c19.16-.61,38.41,1.74,56.86,6.96,7.22,2.04,14.69,4.77,19.5,10.52,4.77,5.69,6.16,13.4,7.3,20.74,5.78,37.18,9.44,74.69,10.97,112.28.75,18.39,1.35,37.99,11.8,53.14,7.21,10.46,18.31,17.5,29.27,23.93,37.04,21.73,80.36,40.35,121.91,29.5,13.14-3.43,25.46-9.7,38.77-12.39,13.31-2.69,28.75-.99,37.82,9.13,4.02,4.48,6.38,10.16,9.37,15.38,4.96,8.66,11.78,16.25,19.86,22.09,19.09,13.8,44.19,17.45,62.89,31.78,15.06,11.55,24.78,29.79,25.96,48.73,1.12,17.94-5.44,36.21-17.62,49.42"/>
        <path class="cls-2" d="M518.11,1358.92c-.23.24-.47.47-.71.71"/>
      </g>
      <path class="cls-11" d="M245.67,1353.39c9.78-44.48,45.05-78.19,78.59-108.99,18.79-17.26,40.88-35.7,66.28-33.31,3.24.31,6.68,1.08,8.88,3.49,1.95,2.13,2.54,5.13,3.36,7.9,5.18,17.36,21.57,29.03,38.32,35.94,16.74,6.91,34.85,10.48,50.89,18.89,5.55,2.91,11.04,6.63,13.91,12.2,2.38,4.62,2.69,9.98,2.95,15.17.83,16.16,1.65,32.33,2.48,48.49"/>
      <path class="cls-11" d="M187.79,1362c28.01-30.21,52.78-63.43,73.74-98.89,4-6.77,8-14.22,7.12-22.03-1.39-12.35-13.83-19.86-24.67-25.92-38.28-21.39-75.51-50.78-89.21-92.43-4.31-13.09-6.1-26.93-6.04-40.71.06-14.94,2.24-30.09-.9-44.71-5.72-26.64-30.66-47.9-57.87-49.33"/>
      <path class="cls-11" d="M164.56,1345.01c15.3-17.22,30.61-34.45,45.91-51.67,10.3-11.59,21.29-25.23,19.48-40.63-1.89-16.06-17.06-27.08-31.88-33.53-14.82-6.45-31.3-10.86-42.57-22.45-4.43-4.55-7.81-10-11.16-15.4-12.03-19.41-24.05-38.82-36.08-58.23"/>
      <path class="cls-11" d="M126.55,1204.13c5.88,12.65,20.79,17.85,34.2,21.69,13.41,3.83,28.34,8.73,34.63,21.17,6.31,12.48,1.15,27.98-7.39,39.07-8.53,11.09-20.1,19.5-28.98,30.3-7.67,9.32-13.23,20.36-16.16,32.07"/>
      <path class="cls-11" d="M285.49,1352.93c2.53-34.94,22.99-65.94,45.5-92.78,7.72-9.21,16.12-18.42,27.1-23.32,10.98-4.89,25.24-4.39,33.58,4.27,6.51,6.75,8.22,16.85,13.77,24.41,11.84,16.13,36.31,15.79,52.38,27.7,14.65,10.85,20.12,32.43,12.43,48.96-1.17,2.52-5.87,4.16-5.65,1.39"/>
      <path class="cls-11" d="M321.26,1344.86c2.8-17.93,9.62-35.22,19.82-50.22,4.86-7.16,11.53-14.36,20.17-14.8,7.72-.39,14.57,4.78,19.99,10.29,5.42,5.51,10.47,11.82,17.57,14.86,8.64,3.7,19.43,2.12,26.79,7.98,4.65,3.7,6.92,9.78,7.3,15.71.39,5.93-.88,11.84-2.14,17.65-2.07.32-4.28-.42-5.74-1.93"/>
      <path class="cls-11" d="M313.21,1216.23c3.86.49,8.28,1.35,10.16,4.76,2.14,3.87-.48,8.89-4.2,11.27-3.72,2.38-8.26,2.99-12.47,4.34-2.94.94-5.86,2.27-8.94,2.13-6.09-.28-10.38-6.06-12.85-11.64-9.89-22.31,13.58-12.75,28.31-10.86Z"/>
      <path class="cls-1" d="M515.77,1158.48c-6.76-6.48-13.6-14.21-13.88-23.56-.24-8.17,4.71-15.67,10.67-21.26,5.96-5.59,13.06-9.86,19.04-15.44,8.21-7.65,14.02-17.48,21.41-25.93,7.39-8.44,17.3-15.83,28.52-15.87,22.13-.06,34.29,26.29,54.32,35.72,14.21,6.69,30.8,4.13,46.46,5.27,7.44.54,15.81,2.66,19.28,9.26,3.18,6.06.81,13.76-3.53,19.05-4.34,5.29-10.34,8.9-15.71,13.15-13.17,10.41-22.82,25.19-27.07,41.42-3.94,15.04-3.64,31.86-12.77,44.45-9.5,13.11-28.83,17.95-43.39,10.87-17.07-8.3-20.09-27.17-32.79-38.53-15.69-14.03-35.05-23.74-50.56-38.62Z"/>
      <path class="cls-11" d="M520.96,1140.65c-1.87-7.19,1.63-14.81,6.53-20.4,4.9-5.59,11.15-9.83,16.37-15.13,7.14-7.26,12.27-16.44,20.12-22.93,7.85-6.49,20.22-9.51,27.94-2.87,4.93,4.24,6.54,11.1,10.12,16.53,8.74,13.25,27.22,15.6,43.01,14.02,6.09-.61,12.36-1.59,18.22.16,5.86,1.75,11.16,7.27,10.27,13.33-.65,4.39-4.18,7.68-7.3,10.83-12.04,12.16-20.67,27.67-24.66,44.31-2.55,10.63-3.46,22.21-10.1,30.9-10.17,13.3-33.14,13.58-43.63.54-8.1-10.08-8.58-24.94-17.41-34.39-11.92-12.75-44.72-16.68-49.47-34.89Z"/>
      <path class="cls-11" d="M580.47,1095.14c9.6,2.12,14.71,12.52,22.81,18.09,9.32,6.41,21.57,5.84,32.88,5.38,3.71-.15,7.85-.12,10.58,2.41,2.93,2.7,3.09,7.44,1.56,11.12-1.53,3.68-4.41,6.6-7.06,9.57-7.57,8.49-13.9,18.44-16.16,29.58-1.71,8.39-2.08,18.83-9.72,22.69-6.45,3.26-14.49-.72-18.91-6.44-4.42-5.72-6.47-12.88-9.95-19.21-5.23-9.51-13.77-16.94-23.77-21.08-7.78-3.23-19.55-2.05-21.49-11.88-3.03-15.4,24.3-43.52,39.23-40.22Z"/>
      <path class="cls-11" d="M586.72,1125.96c2.87,2.01,5.62,4.35,8.96,5.41,3.52,1.11,7.31.68,11,.55,3.69-.13,7.65.15,10.59,2.38,2.94,2.23,4.15,7.04,1.54,9.65-1.21,1.21-2.98,1.74-4.16,2.97-3.67,3.82.47,11.22-3.14,15.11-.88.95-2.12,1.51-3.38,1.81-7.06,1.66-13.61-4.29-17.52-10.4-3.91-6.11-7.16-13.3-13.62-16.59-14.94-7.59-1.59-18.8,9.74-10.89Z"/>
      <path class="cls-11" d="M156.73,729.64c17.7,3.21,29.53,19.34,43.65,30.48,23.55,18.59,55.35,24.05,79.14,42.33,4.46,3.42,8.87,7.79,9.45,13.38.94,8.93-8.05,15.59-16.4,18.88-8.35,3.29-18.05,5.94-22.47,13.76-5.59,9.88-.87,25.19-10.32,31.49-2.93,1.95-6.6,2.41-10.12,2.31-18.75-.51-33.88-14.61-48.04-26.91-14.16-12.3-32.18-24.29-50.33-19.54"/>
      <path class="cls-11" d="M149.24,742.06c12.64,5.84,22.81,15.79,33.71,24.45,18.73,14.86,40.23,26.22,63.06,33.32,4.87,1.51,9.88,2.87,14.16,5.63s7.82,7.25,7.97,12.35c.22,7.29-6.17,12.92-12.29,16.89-6.12,3.96-13.08,8.05-15.24,15.02-1.01,3.26-.83,6.87-2.32,9.94-2.89,5.97-11.11,7.52-17.37,5.33-6.26-2.19-11.12-7.07-16.16-11.38-13.81-11.83-30.44-20.35-48.12-24.64-2.33-.57-5.13-3.51-2.98-4.57"/>
      <path class="cls-11" d="M145.15,762.3c17.79,12.9,36.66,24.32,56.34,34.09,10.73,5.33,22.02,10.4,30.05,19.29,2.39,2.64,4.56,6.06,3.81,9.55-.47,2.19-2.01,3.96-3.26,5.82-2.83,4.22-4.32,9.32-4.2,14.39.03,1.3.13,2.71-.62,3.77-1.37,1.93-4.37,1.29-6.49.26-6.91-3.37-12.58-8.74-18.61-13.5-16.94-13.37-37.41-22.23-58.76-25.43"/>
      <path class="cls-11" d="M152.96,785.11c9.31,3.49,18.47,7.41,27.43,11.72,11.86,5.71,23.82,12.52,31.2,23.42,1.08,1.59,1.73,4.32-.08,4.97-.57.21-1.2.09-1.79-.06-7.53-1.89-13.31-7.71-19.4-12.53-13.56-10.72-30.39-17.23-47.63-18.43"/>
      <path class="cls-11" d="M318.47,436.18c-14.18,7.73-29.71,12.92-43.26,21.71-2.72,1.76-5.47,3.82-6.72,6.81-4.02,9.68,9.59,17.13,13.3,26.94,3.17,8.37-1.62,17.88-8.29,23.85-6.67,5.97-15.07,9.65-22.23,15.02-8.22,6.16-14.73,14.59-18.63,24.1-2.7,6.6-3.5,15.56,2.38,19.61,4.44,3.06,10.47,1.68,15.54-.13,24.44-8.72,46.08-25.12,61.09-46.28,8.36-11.79,14.72-25.01,24.1-36.01,7.6-8.92,16.96-16.12,25.61-24.02s16.81-16.84,20.99-27.78c4.18-10.94,3.68-24.28-3.78-33.31-8.69-10.5-23.19-10.93-30.75-.86-9.39,12.5-14.21,22.13-29.34,30.37Z"/>
      <path class="cls-11" d="M364.39,451.28c6.94-8.59,12.36-19.78,9.49-30.44-.51-1.88-1.29-3.73-2.6-5.16-3.05-3.33-8.41-3.65-12.57-1.88-4.16,1.77-7.36,5.19-10.27,8.65-7.64,9.08-14.52,19.32-24.81,25.23-12.5,7.18-29.03,7.35-39.01,17.74-1.25,1.3-2.43,2.91-2.36,4.72.08,2.04,1.68,3.65,3.02,5.19,7.22,8.3,9,20.92,4.37,30.89-2.92,6.28-7.98,11.26-12.52,16.49-4.54,5.23-8.8,11.21-9.52,18.1-.08.72-.1,1.51.29,2.12.27.43.7.72,1.13.98,6.21,3.7,14.48,2.08,20.41-2.04,5.94-4.13,10.06-10.32,14.03-16.36,10.23-15.55,20.46-31.1,30.69-46.65,4.07-6.18,8.75-8.31,14.45-12.51,5.88-4.33,11.2-9.41,15.79-15.08Z"/>
      <path class="cls-11" d="M300.09,468.32c2.84-2.29,6.32-3.62,9.66-5.08,9.53-4.18,18.44-9.78,26.34-16.55,4.32-3.71,8.36-7.78,12.98-11.11,2.32-1.67,5.82-3.04,7.74-.92,1.81,2,.41,5.17-1.21,7.32-5.98,7.91-14.27,13.69-22.03,19.87-7.76,6.18-15.35,13.2-19.06,22.4-1.65,4.11-3.31,9.32-7.68,10.05-3.18.53-6.26-1.94-7.5-4.93-1.49-3.58-2.1-8.12-3.2-11.78-1.09-3.62,1.01-6.91,3.94-9.27Z"/>
      <path class="cls-11" d="M115.78,561.45c18.79-4.32,37.18-10.39,54.85-18.09,10.23-4.46,20.52-9.55,31.64-10.41,3.37-.26,7.2.06,9.4,2.63,1.84,2.15,1.98,5.34,1.14,8.04-.84,2.7-2.52,5.04-4.08,7.4-2.58,3.91-4.9,8-6.92,12.23-2.52,5.26-4.35,12.2-.3,16.41,2.35,2.45,6.45,3.61,7.17,6.93.59,2.71-1.5,5.2-3.42,7.2-6.88,7.2-13.52,14.63-19.9,22.27-5.03,6.03-10.1,12.62-11.05,20.41-.72,5.89,1,12.02-.64,17.72-1.08,3.74-3.53,6.96-6.4,9.58-9.73,8.93-23.65,11.39-36.81,12.48-.44.04-.99.02-1.19-.38-.2-.39.6-.81.64-.37"/>
      <path class="cls-11" d="M128.01,570.5c8.29-4.71,16.81-9.02,25.58-12.76,3.91-1.66,7.88-3.21,11.84-4.76,4.19-1.63,8.37-3.27,12.56-4.9,5.44-2.12,10.99-4.27,16.82-4.6.64-.04,1.32-.04,1.87.29,1.42.85.91,3.02.09,4.45-1.7,2.95-4.03,5.49-6.06,8.23-5.18,6.98-8.46,15.35-9.4,23.99-.29,2.65-.11,5.83,2.15,7.25,2.51,1.57,6.75.36,7.99,3.05.75,1.63-.34,3.49-1.48,4.87-4.65,5.67-10.78,9.89-16.23,14.8-5.45,4.91-10.43,10.96-11.55,18.2-.59,3.82-.07,7.76-.92,11.53-1.11,4.96-4.69,9.29-9.34,11.33-3,1.31-6.32,1.69-9.43,2.72-4.06,1.34-7.68,3.77-11.68,5.27-.69.26-1.9-.05-1.53-.69"/>
      <path class="cls-11" d="M130.48,584.64c10.22-5.73,20.43-11.45,30.65-17.18,3.55-1.99,7.46-4.05,11.47-3.38,1.04,1.86-.21,4.12-1.34,5.93-1.88,3-3.56,6.21-4.11,9.7-.55,3.49.18,7.33,2.61,9.9,1.9,2.01,4.98,3.9,4.31,6.57-.28,1.1-1.17,1.92-2.04,2.65-4.16,3.51-8.9,6.84-10.92,11.89-.94,2.35-1.21,4.92-2.14,7.27-1.89,4.8-6.29,8.16-10.87,10.52-4.58,2.36-9.55,3.98-13.96,6.65"/>
      <path class="cls-11" d="M133.32,597.54c5.03-4.48,11-7.9,17.41-9.97,1.46-.47,2.99-.88,4.52-.71,1.53.17,3.06,1.05,3.61,2.49.82,2.14-.74,4.39-1.2,6.63-.45,2.16.13,4.41,0,6.62-.29,4.89-4.03,8.91-8.11,11.62-4.8,3.19-10.38,5.2-16.11,5.8"/>
      <path class="cls-11" d="M175.12,684.49c-.42,1.72-.84,3.47-.71,5.23.4,5.65,6,9.34,8.7,14.32.71,1.3,1.21,2.95.44,4.23-.89,1.48-2.98,1.65-4.66,1.3-6.55-1.38-10.76-7.54-15.91-11.82-1.5-1.24-3.16-2.41-4.07-4.13-1.14-2.16-.85-4.84.17-7.06,1.02-2.22,2.67-4.07,4.31-5.88,2.3-2.55,4.6-5.1,6.9-7.64,2.46-2.73,6.75-4.3,7.46.58.48,3.29-1.84,7.71-2.61,10.88Z"/>
      <path class="cls-11" d="M255.85,481.94c1.91,1.82,4.34,3.01,6.36,4.7,3.6,3.01,5.78,7.65,5.8,12.34,0,1.23-.14,2.5-.76,3.56-1.08,1.87-3.31,2.68-5.33,3.44-8.2,3.08-15.89,7.53-22.65,13.11-1.76,1.45-3.9,3.09-6.08,2.43-1.74-.52-2.79-2.44-2.78-4.26,0-1.82.86-3.53,1.88-5.04,3.66-5.45,9.58-9.25,12.56-15.1,3.12-6.13,2.48-13.46,4.26-20.11.5-1.87,2.07-4.2,3.85-2.27.61.66.23,2.52.5,3.36.47,1.48,1.26,2.77,2.39,3.84Z"/>
      <path class="cls-11" d="M390.85,372.08c-3.53-2.8-8.61-5.28-12.27-2.66-2.03,1.46-2.86,4.02-4.03,6.23-2.67,5.01-7.79,8.64-13.4,9.5-1.49.23-3.48.76-3.42,2.27.06,1.56,2.2,1.9,3.76,1.77,7.45-.59,15.19-.55,22.07,2.36,6.88,2.92,12.72,9.32,13.01,16.78.17,4.39-1.53,8.61-2.81,12.82-1.3,4.29-2.19,8.71-2.64,13.17-.21,2.07-.24,4.39,1.14,5.94,1.39,1.56,3.72,1.77,5.81,1.78,13.37.02,26.71-4.53,37.29-12.72,2.14-1.66,4.29-3.65,4.85-6.31.68-3.2-1.22-6.47-3.75-8.55-2.53-2.08-5.64-3.29-8.52-4.85-2.88-1.56-5.7-3.65-6.89-6.7-1.45-3.72-.16-7.86.72-11.76.88-3.89,1.13-8.53-1.74-11.3-2.23-2.15-5.63-2.44-8.73-2.37-8.58.2-13.41.19-20.46-5.43Z"/>
      <path class="cls-11" d="M391.25,377.53c2.44,2.26,4.64,5.08,7.84,5.95,2.37.64,4.88.09,7.34-.04,2.46-.13,5.25.37,6.63,2.4.76,1.13.95,2.55.97,3.91.07,5.21-1.83,11.12,1.43,15.18,2.71,3.37,8.14,4.06,10.02,7.95,1.23,2.55.41,5.7-1.3,7.96-1.71,2.25-4.17,3.79-6.58,5.28-3.63,2.25-7.44,4.55-11.7,4.91-1.11.09-2.28.04-3.26-.5-2.42-1.33-2.5-4.72-2.22-7.47.77-7.4,1.93-14.96.15-22.19-1.77-7.22-7.38-14.12-14.79-14.74-5.56-.46-11.68-.88-7.06-7.05,3.67-4.9,7.5-6.2,12.52-1.55Z"/>
      <path class="cls-11" d="M493.21,386.85c9.91,2.5,19.08,8.53,24.46,17.22,2.76,4.45,4.49,9.49,7.39,13.85,3.86,5.81,9.79,10.22,16.47,12.26,6.49,1.98,13.42,1.74,20.14,2.67,4.83.67,9.58,1.95,14.1,3.8,1.96.8,4.04,1.89,4.79,3.87.67,1.77.02,3.84-1.21,5.27-1.23,1.44-2.97,2.34-4.72,3.07-7.09,2.93-14.93,3.34-22.52,4.49-7.59,1.15-15.48,3.29-20.85,8.77-3.59,3.66-5.79,8.57-9.68,11.91-4.4,3.78-11.12,5.03-16.19,2.22-5.44-3.02-7.77-9.55-12.07-14.06-6.98-7.34-18.04-8.44-27.65-11.63-2.84-.94-5.82-2.28-7.24-4.91-1.62-3-.67-6.8,1.18-9.67s4.49-5.12,6.62-7.78c2.13-2.66,3.79-6.04,3.14-9.39-.46-2.37-2.01-4.37-3.52-6.26-1.93-2.43-3.86-4.85-5.79-7.28-3.03-3.82-4.75-7.6-1.96-12.12,1.63-2.63,3.98-4.98,6.97-5.92,8.61-2.72,19.48-2.58,28.13-.39Z"/>
      <path class="cls-9" d="M491.09,392.27c7.87,1.87,15.91,6.16,18.89,13.68,1.41,3.54,1.55,7.46,2.64,11.11,1.63,5.46,5.28,10.06,8.85,14.5,1.15,1.44,2.35,2.91,3.94,3.84,1.49.87,3.23,1.2,4.92,1.52,6.4,1.2,12.8,2.4,19.19,3.61.73.14,1.56.35,1.9,1.01.6,1.17-.83,2.33-2.05,2.83-8.2,3.3-17.79,3.75-24.58,9.4-4.04,3.36-7.4,8.63-12.64,8.71-3.4.05-6.39-2.24-8.66-4.77-2.27-2.53-4.19-5.46-6.98-7.4-3.89-2.71-8.87-3.12-13.57-3.72-4.7-.6-9.74-1.69-12.88-5.24-.73-.83-1.36-1.85-1.35-2.95,0-1.32.9-2.45,1.77-3.43,2.2-2.47,4.64-4.75,6.51-7.48,1.87-2.73,3.16-6.04,2.69-9.31-1.25-8.72-16.33-12.58-15.25-21.2,1.2-9.58,20.79-6.07,26.65-4.68Z"/>
      <path class="cls-11" d="M480.47,395.71c-1-.05-2.12-.06-2.85.63-1.25,1.19-.34,3.27.69,4.65,4.26,5.68,9.92,10.38,13.01,16.77.92,1.91,1.6,4.11.98,6.14-.62,2.03-2.38,3.45-3.87,4.97s-2.84,3.57-2.31,5.62c.71,2.79,4.15,3.62,6.9,4.49,3.57,1.12,6.85,3.13,9.47,5.8,1.22,1.25,2.33,2.66,3.83,3.55,2.51,1.5,5.72,1.29,8.48.31,2.33-.83,4.72-2.6,4.79-5.07.05-1.74-1.12-3.31-2.5-4.38-1.38-1.06-3.01-1.76-4.46-2.74-5.2-3.51-7.37-10.04-8.56-16.2-1.05-5.44-1.15-14.1-4.45-18.81-3.74-5.33-13.38-5.43-19.14-5.73Z"/>
      <path class="cls-11" d="M631.66,285.64c5.85-14.86,15.09-28.09,24.29-41.14,6.19-8.77,12.39-17.54,18.59-26.3,6.14-8.67,12.28-17.34,18.43-26.01,1.23-1.74,2.49-3.5,4.13-4.87,6.47-5.39,16.94-2.57,22.49,3.76,5.55,6.33,7.4,15.01,8.9,23.29,1.43,7.89,2.72,15.93,1.77,23.89-.63,5.28-2.23,10.38-3.99,15.4-4.2,11.96-9.44,23.78-17.65,33.43-4.15,4.89-9,9.14-13.36,13.84-9.13,9.83-16.06,21.48-24.53,31.87-6.96,8.53-15.84,16.63-26.79,17.78-3.44.36-7.04-.03-10.08-1.68-9.19-4.97-6.28-17.75-7.43-26.37-1.66-12.5.67-25.24,5.26-36.9Z"/>
      <path class="cls-11" d="M702.98,198.98c-3.31.33-6.48,1.96-8.67,4.46-2.42,2.77-3.57,6.39-4.81,9.86-4.7,13.19-11.44,25.65-19.93,36.79-4.71,6.18-9.96,11.98-14.13,18.54-7.14,11.25-10.81,24.3-14.43,37.13-1.43,5.09-2.88,10.41-1.82,15.59,1.06,5.18,5.5,10.08,10.78,9.74,4.39-.28,7.81-3.93,10.11-7.69,3.66-5.97,5.73-12.8,9.33-18.81,3.31-5.54,7.82-10.24,12.21-14.98,15.24-16.48,29.85-35,34.07-57.05.9-4.7,1.29-9.67-.32-14.17-1.67-4.68-5.07-8.37-5.32-13.46-.21-4.27-2.14-6.45-7.06-5.96Z"/>
      <path class="cls-11" d="M701.08,215.78c-2.37-.02-4.17,2.14-5.16,4.3-1.66,3.64-2.03,7.71-2.85,11.63-1.91,9.18-6.4,17.8-12.83,24.62-3.14,3.33-6.7,6.22-9.9,9.48-7.68,7.83-13.14,17.81-15.59,28.5-.42,1.84-.75,3.79-.17,5.58.58,1.8,2.35,3.34,4.21,3.03,1.1-.18,2.01-.95,2.8-1.74,7.07-7.03,9.33-17.48,14.63-25.93,2.73-4.36,6.26-8.15,9.42-12.21,6.09-7.82,10.8-16.62,14.66-25.73,1.67-3.94,11.1-21.46.79-21.54Z"/>
      <path class="cls-11" d="M602.77,217.94c-3.72,2.86-7.05,6.2-10.63,9.23-3.34,2.83-6.92,5.43-9.73,8.78-2.81,3.35-4.82,7.66-4.31,12.01.05.38.12.78.38,1.07.33.37.88.45,1.37.5,4.03.39,8.12.24,12.11-.45,2.11-.37,4.4-.86,6.32.1,2.64,1.32,3.36,4.72,3.53,7.66.17,2.95.25,6.24,2.36,8.31,1.89,1.86,5,2.08,7.42.99,2.42-1.09,4.2-3.26,5.41-5.62,2.68-5.26,2.8-11.39,3.85-17.2,1.87-10.36,6.91-20.02,13.94-27.81,1.67-1.85,4.28-3.46,2.61-6.01-1-1.51-4.44-2.7-6.16-2.95-3.89-.56-8.73,1.67-12.35,2.86-5.8,1.92-11.28,4.81-16.11,8.54Z"/>
      <path class="cls-11" d="M596.15,232.94c1.29,1.57,3.7,1.43,5.71,1.14,2.01-.29,4.41-.46,5.74,1.08.99,1.15.98,2.83.91,4.34-.08,1.68.05,3.77,1.59,4.46,1.51.67,3.18-.6,4.07-1.99,1.9-2.94,2.23-6.66,1.78-10.14-.33-2.56-1.02-5.33.22-7.59.57-1.03,1.48-1.83,2.21-2.76,1.78-2.28.96-5.01-1.99-4.69-1.73.19-5.51,3.11-7.08,4.08-5.08,3.15-9.58,7.25-13.15,12.05Z"/>
      <path class="cls-11" d="M656.44,122.68c2.44,1.59,3.25,4.76,3.59,7.66,1.16,9.91-.9,20.04-4.87,29.19-3.98,9.15-9.82,17.39-16.36,24.94-1.13,1.31-2.31,2.64-2.93,4.26-.61,1.62-.54,3.62.64,4.88.74.78,1.8,1.18,2.86,1.37,6.22,1.12,11.72-4.04,15.45-9.14,10-13.66,15.93-30.26,16.86-47.16.12-2.21.15-4.48-.51-6.59-1.2-3.83-4.6-7.07-4.36-11.08.02-.4-.46-.78-.79-.55-.33.23.11.88.39.61"/>
      <path class="cls-11" d="M582.49,270.72c-6.29-1.2-12.83.35-18.72,2.88-9.83,4.21-18.46,11.19-24.64,19.91-3.06,4.33-5.53,9.06-8.75,13.28-3.21,4.22-7.36,7.99-12.48,9.4-2.74.76-5.62.8-8.43,1.24-3.68.58-7.32,1.91-10.16,4.33-2.84,2.42-4.8,6.01-4.73,9.73.11,6.5,6,11.41,11.93,14.05,5.94,2.64,12.57,4.05,17.62,8.14,8.86,7.16,10.44,20.46,18.71,28.29,5.44,5.15,13.3,7.28,20.77,6.72,7.47-.56,14.58-3.6,20.9-7.63,2.58-1.65,5.08-3.49,7.04-5.84,3.6-4.34,5.07-10.08,5.58-15.69.87-9.62-.79-19.26-1.21-28.9-.57-13.04-.03-26.68.69-39.71.27-4.82,1.21-7.88-1.85-12.27-2.83-4.08-7.41-7-12.28-7.92Z"/>
      <path class="cls-11" d="M525.43,322.13c-4.17,1.78-8.75,2.33-13.07,3.72-3.18,1.02-6.64,3.07-6.93,6.4-.05.57,0,1.17.29,1.67.46.81,1.41,1.2,2.32,1.43,4.82,1.25,10.05-.17,14.82,1.27,3.2.97,5.9,3.15,9.02,4.38s7.23,1.2,9.19-1.52c1.98-2.75.7-6.63-1.12-9.49-1.82-2.86-4.2-5.65-4.34-9.03-.12-2.76,1.32-5.44,1.09-8.2-.13-1.56-1.57-2.39-2.74-1.3-.5.47-.45,3.15-.8,3.94-1.36,3.13-4.69,5.42-7.72,6.71Z"/>
      <path class="cls-11" d="M573.79,295.22c-1.95.1-3.77,1.08-5.26,2.35-5.93,5.06-6.84,13.83-6.39,21.62.46,7.78,1.78,15.93-1.2,23.13-1.48,3.58-3.95,6.71-5.14,10.39-1.19,3.68-.61,8.44,2.75,10.36,2.95,1.68,6.77.46,9.52-1.55,4.47-3.26,7.41-8.52,7.84-14.03.54-6.91-2.63-13.51-3.85-20.34-.63-3.54-.74-7.17-.32-10.74.42-3.58,1.37-7.08,2.59-10.47,1.24-3.46,6.8-11.09-.55-10.72Z"/>
      <path class="cls-11" d="M508.94,295.6c1.36-.23,2.75-.48,4.11-.25s2.71,1.07,3.14,2.38c.56,1.71-.64,3.59-2.21,4.46-1.58.87-3.44,1.01-5.22,1.26-4.19.58-8.28,1.87-12.04,3.79-2.27,1.15-4.59,2.76-5.26,5.21-.49,1.77-.1,3.9-1.35,5.24-.97,1.04-2.56,1.17-3.98,1.04-5.04-.46-9.58-3.24-13.49-6.45-3.92-3.21-7.43-6.92-11.6-9.78-2.25-1.54-4.68-2.84-6.73-4.63-2.61-2.29-6.58-9.02-1.27-10.71,3.75-1.19,5.65,2.98,8.49,4.44,8.89,4.56,20.09,5.69,29.92,5.62,5.87-.05,11.73-.63,17.51-1.61Z"/>
      <path class="cls-11" d="M475.11,310c1.17.96,2.63,1.51,4.09,1.92.75.21,1.54.39,2.31.29s1.55-.54,1.86-1.26c.42-.99-.13-2.16.13-3.2.27-1.05,1.3-1.72,2.33-2.06,1.03-.34,2.13-.44,3.11-.89.22-.1.44-.23.56-.43.26-.44-.05-.99-.41-1.34-1.72-1.69-4.46-1.53-6.87-1.41-2.11.11-4.27.1-6.35-.35-1.47-.32-3.56-1.75-4.88-.4-1.95,1.99,2.48,7.82,4.11,9.14Z"/>
      <path class="cls-11" d="M528.96,226.89c5.28-4.07,10.19-8.7,16.05-11.9,1.75-.95,3.76-1.8,5.69-1.27,2.82.76,4.14,4.25,3.54,7.11-.6,2.86-2.57,5.2-4.47,7.42-6.23,7.25-12.45,14.49-18.68,21.74-4.11,4.78-8.25,9.59-13.19,13.5-4.42,3.5-9.41,6.22-14.47,8.7-4.74,2.32-9.69,4.48-14.95,4.88-6.55.5-13.09-1.84-18.52-5.53-5.43-3.7-9.85-8.69-13.8-13.94-2.18-2.89-4.32-6.1-4.47-9.72-.44-10.08,8.42-4.98,13.74-3.97,7.46,1.42,15.14,1.49,22.65.45,14.84-2.05,29.06-8.34,40.89-17.47Z"/>
      <path class="cls-11" d="M531.45,232.37c1.84-1.52,4.5-3.15,6.36-1.65,2.28,1.85.04,5.44-2.2,7.34-11.89,10.08-24.8,18.96-38.47,26.47-4.59,2.52-9.45,4.94-14.68,5.18-5.97.28-14.35-3.79-13.67-10.93.72-7.67,11.62-5.78,17.04-6.53,16.64-2.3,32.66-9.19,45.63-19.89Z"/>
      <path class="cls-11" d="M503.3,192.22c2.25-.57,4.52-1.34,6.84-1.18,2.32.17,4.76,1.6,5.18,3.89.34,1.84-.68,3.65-1.83,5.12-4.69,5.97-11.96,9.26-19.1,11.83-6.02,2.16-12.4,3.98-18.73,3.09-6.33-.89-12.59-5.14-13.97-11.38-1-4.5.16-10.25-3.62-12.87-.88-.61-1.92-.94-2.77-1.58-4.43-3.32-.44-9.52,3.67-10.63,5.19-1.4,6.97,2.73,10.29,5.76,8.81,8.03,22.65,10.81,34.05,7.94Z"/>
      <path class="cls-11" d="M497.8,196.41c2.03-.39,4.63-.69,5.72,1.07,1.06,1.71-.32,3.93-1.93,5.14-3.01,2.25-6.86,2.98-10.56,3.59-4.66.76-9.64,1.37-13.92-.6-3.93-1.81-14.74-11.37-4.74-10.78,8.87.53,16.29,3.33,25.44,1.58Z"/>
      <path class="cls-11" d="M960.28,300.07c-6.06-24.55-32.6-40.64-57.85-39.35-25.25,1.3-48.12,17.21-62.84,37.77-11.79,16.47-19.59,36.4-35.53,48.9-10.97,8.6-24.68,12.74-36.96,19.34-22.69,12.21-40.42,33.35-48.48,57.83-8.06,24.48-6.37,52.02,4.63,75.32,5,10.58,12.24,20.66,22.66,25.98,22.13,11.3,49.17-2.22,73.61,2.25,1.3.24,2.64.55,3.69,1.36,1.9,1.47,2.32,4.11,2.89,6.45,2.64,10.85,11.2,19.24,20.22,25.84,30.95,22.64,72.07,30.76,109.3,21.6-.93.04-1.87.07-2.8.11"/>
      <g>
        <path class="cls-2" d="M958.42,272.68c-.26-.21-.52-.42-.78-.63"/>
        <path class="cls-6" d="M954.55,269.55c-10.95-8.8-22.29-17.26-35.14-22.85-14.38-6.26-31.06-8.64-45.78-3.24-19,6.97-31.16,25.02-43.96,40.69-13.46,16.49-28.94,31.33-45.97,44.11-18.95,14.21-40.04,26.07-55.73,43.81-23.66,26.76-32.25,64.42-29.57,100.04.54,7.24,1.54,14.54,4.22,21.3,3.02,7.61,8.06,14.21,13.08,20.68,10.66,13.73,22.89,28.2,39.89,31.81,15.94,3.39,34.4-3.24,47.81,6.02,4.93,3.4,8.35,8.52,12.34,12.98,20.49,22.92,54.13,27.35,84.73,30.31,19.86,1.92,39.72,3.84,59.58,5.76"/>
        <path class="cls-2" d="M962.04,601.17c.33.03.66.06,1,.1"/>
      </g>
      <path class="cls-11" d="M637.36,463.21c-.96,11.16-.04,22.75,4.71,32.9,4.75,10.15,13.77,18.68,24.75,20.93,4.11.84,8.71.71,12.1-1.77,4.13-3.01,5.41-8.78,4.59-13.84-.82-5.05-3.33-9.64-5.51-14.26-7.9-16.75-11.76-36.1-6.9-53.97,2.41-8.85,6.91-17.32,7.06-26.49.12-6.78-4.29-12.68-10.99-8.86-5.38,3.06-10.89,13.41-14.12,18.58-8.79,14.08-14.29,30.24-15.71,46.79Z"/>
      <path class="cls-11" d="M645.49,459.73c-2,9.55-1.66,19.68,1.72,28.83,1.91,5.19,5.89,10.68,11.41,10.47,4.34-.17,7.84-4.08,8.86-8.31,1.02-4.23.09-8.67-1.09-12.85-2.21-7.83-5.31-15.6-5.19-23.73.08-5.38,1.63-10.53,2.39-15.82.5-3.51-.52-10.18-5.3-6.57-3.32,2.51-5.76,8.97-7.51,12.62-2.34,4.89-4.17,10.04-5.28,15.35Z"/>
      <path class="cls-11" d="M580.4,481.71c-1.14-2.52-3.24-4.49-5.55-6.02-9.95-6.59-24.6-4.75-32.62,4.09-7.82,8.63-10.71,23.27-22.05,25.93-5.95,1.4-12.59-1.28-18.14,1.28-4.12,1.9-6.53,6.22-8.12,10.46-5.09,13.65-4.31,29-.02,42.92,4.29,13.92,11.9,26.59,20.31,38.48,5.51,7.79,11.49,15.41,19.04,21.25,8.5,6.57,18.65,10.62,28.85,13.97,21.85,7.17,44.59,11.51,66.13,19.54,21.54,8.03,42.43,20.42,54.97,39.7,6.06,9.32,9.97,19.95,16.36,29.05,12.6,17.95,36.93,28.59,57.45,20.86,12.62-4.76,22.31-15.71,27.4-28.2,5.09-12.49,5.92-26.39,4.44-39.79-2.2-19.91-9.86-39.88-24.7-53.33-15.07-13.66-35.58-19.15-55.07-24.96-29.61-8.83-58.72-19.36-87.12-31.54-9.69-4.16-19.48-8.61-27.29-15.7-9.41-8.53-14.55-19.96-16.37-32.37-.7-4.77-1.34-9.92-.72-14.69.91-6.97,6.05-13.77,2.81-20.94Z"/>
      <path class="cls-11" d="M548.64,500.14c-2.75,5.77-4.84,12.57-10.44,15.67-6.81,3.76-15.7.21-22.89,3.19-3.63,1.5-6.42,4.54-8.47,7.89-6.87,11.24-5.94,25.94-.66,38.01,5.27,12.08,14.34,22.05,23.5,31.51,9.89,10.21,20.39,20.33,33.41,26.05,6.3,2.77,13.02,4.42,19.73,5.97,20.74,4.77,41.8,8.61,61.76,16,19.96,7.39,39.07,18.73,51.85,35.74,7.9,10.52,13.32,23.07,23.15,31.8,9.83,8.73,26.75,11.89,35.37,1.96,3.16-3.64,4.65-8.38,6.07-12.98,3.26-10.59,6.55-21.31,7.13-32.37.58-11.06-1.8-22.69-8.82-31.27-5.28-6.46-12.73-10.72-19.99-14.83-20.75-11.73-41.73-23.57-64.59-30.31-8.49-2.51-17.19-4.29-25.68-6.8-28.03-8.29-59.83-25.59-78.61-48.59-6.9-8.44-7.5-16.76-6.11-27.29.7-5.32,5.23-15.67-.11-19.08-6.29-4.01-13.42,5.14-15.6,9.72Z"/>
      <path class="cls-11" d="M736.1,643.33c2.95,1.7,5.88,3.55,8.15,6.1,2.94,3.32,4.56,7.6,5.58,11.92,1.34,5.73,1.6,12.15-1.58,17.11-3.8,5.91-11.79,8.13-18.67,6.68-6.88-1.46-12.75-5.94-17.6-11.03-4.85-5.09-8.93-10.88-13.81-15.93-6.67-6.9-14.71-12.3-21.79-18.79-4.64-4.25-9.08-9.48-9.56-15.75-.48-6.28,5.01-13.17,11.16-11.83,2.54.55,4.61,2.31,6.58,4,7.44,6.42,13.39,12.34,22.61,15.48,9.83,3.35,20.13,6.23,28.93,12.05Z"/>
      <path class="cls-11" d="M555.59,533.62c-2.36-2.57-6.01-4.3-9.35-3.3-1.56,4.35-3.83,9.34-8.36,10.22-3.99.77-7.91-2.13-11.96-1.76-5.61.51-8.84,7.34-7.61,12.84,1.23,5.5,5.46,9.76,9.63,13.55,24.37,22.11,53.36,39.11,84.55,49.58,4.26,1.43,9.09,2.71,13.1.69,5.87-2.95,6.52-11.67,3.01-17.23-9.12-14.41-31.9-16.94-45.26-26.33-13.8-9.7-17.03-26.58-27.74-38.24Z"/>
      <path class="cls-11" d="M548.39,547.78c-1.04.14-2.15.55-2.61,1.49-.33.66-.26,1.45-.47,2.16-.4,1.39-1.81,2.3-3.23,2.54-1.42.24-2.88-.06-4.29-.38-.9-.2-1.87-.4-2.71-.04-1.26.54-1.74,2.18-1.39,3.51.35,1.33,1.32,2.39,2.29,3.36,6.01,5.98,13.39,10.36,20.68,14.68,4.38,2.59,8.75,5.18,13.13,7.78.34.2.75.41,1.13.27.4-.16.54-.66.6-1.09.62-4.92-2.67-9.43-6.1-13.01-3.95-4.12-7-6.85-7.35-12.56-.32-5.11-4.19-9.42-9.67-8.7Z"/>
      <path class="cls-11" d="M677.83,626.41c.1-.68.31-1.4.87-1.8.76-.54,1.81-.27,2.66.12,5.28,2.42,8.38,7.87,12.61,11.85,5.31,4.98,12.35,7.57,19.02,10.48,6.67,2.91,13.48,6.55,17.32,12.73.94,1.52,1.63,3.65.41,4.96-.72.78-1.88.96-2.94.99-4.58.13-9.04-1.73-12.83-4.3-3.8-2.58-7.05-5.86-10.4-8.98-5.18-4.82-10.66-9.31-16.4-13.43-4.91-3.53-11.45-5.21-10.32-12.62Z"/>
      <g>
        <path class="cls-2" d="M992.42,890.26c-.19-.27-.39-.54-.59-.81"/>
        <path class="cls-7" d="M989.24,886.42c-3.55-3.69-7.87-6.67-12.19-9.47-29.84-19.33-62.93-33.65-97.45-42.16-12.75-3.14-26.65-5.41-38.65-.07-7.63,3.39-13.67,9.55-18.99,15.99-5.82,7.05-11.17,14.97-12.53,24-1.71,11.32,3.14,22.73,9.94,31.94,6.8,9.21,15.52,16.8,23.13,25.34,37.01,41.56,44.51,100.71,65,152.45,6.49,16.38,14.99,32.92,29.52,42.88,16,10.98,36.45,12.15,55.97,12.45"/>
        <path class="cls-2" d="M994.99,1139.8c.33,0,.67,0,1,.01"/>
      </g>
      <path class="cls-11" d="M1003.66,926.44c-34.98-29.69-70.82-59.9-113.56-76.61-16.85-6.59-38.91-9.73-50.52,4.15-11.49,13.74-4.37,35.48,8.19,48.26,12.56,12.78,29.45,20.63,41.94,33.48,20.53,21.12,26.14,52.16,31.05,81.21,4.91,29.04,11.12,60.12,32.36,80.53,14.54,13.97,35.3,21.2,55.38,19.28"/>
      <path class="cls-11" d="M984.67,1072.49c-15.4,5.21-32.95-2.75-43.04-15.49-10.09-12.74-14.05-29.26-16.07-45.39-2.02-16.13-2.4-32.56-6.58-48.26-5.46-20.51-17.49-39.22-33.88-52.7-4.39-3.61-9.17-6.95-12.31-11.69-3.14-4.74-4.23-11.42-.84-15.98,5.51-7.41,17.37-4.08,24.92,1.24,16.32,11.5,27.69,28.56,41.45,43.01,13.76,14.46,32.19,27.06,52.06,25.13"/>
      <path class="cls-11" d="M966.8,1024.43c.7-3.16-2.13-5.97-4.92-7.59-5.7-3.31-12.29-4.69-18.44-7.06-6.15-2.37-12.3-6.18-14.79-12.29-2.67-6.54-.53-13.93-.54-20.99-.02-16.58-11.99-31.74-10.51-48.25.08-.95.26-1.98,1-2.59,1.34-1.1,3.31,0,4.62,1.13,6.11,5.27,11.28,11.63,15.2,18.69,2.33,4.19,4.28,8.71,7.7,12.07,3.46,3.4,8.1,5.27,12.61,7.06,5.36,2.13,10.71,4.26,16.07,6.38"/>
      <path class="cls-11" d="M967.96,839.42c-13.03-18.18-32.97-30.65-54.27-37.46-21.3-6.81-43.97-8.29-66.32-7.57-10.16.33-20.5,1.15-29.91,4.99-20.45,8.35-32.69,29.1-42.36,48.96-5.55,11.39-10.81,23.18-12.35,35.76-3.61,29.51,13.71,57.49,33.36,79.79,19.65,22.31,42.81,42.51,55.23,69.52,12.81,27.84,12.86,60.23,25.63,88.09,18.79,41.01,63.07,65.9,107.72,72.32"/>
      <path class="cls-11" d="M813.41,701.19c.53-7.66,1.56-17.47,8.96-19.52,5.3-1.46,10.75,2.59,13.23,7.5,2.47,4.91,2.88,10.55,4.19,15.89,2.11,8.6,6.67,16.58,12.97,22.8,14.21,14.05,37.53,20.35,44,39.26,1.06,3.11,1.32,7.11-1.29,9.11-3.23,2.48-7.76-.09-11.1-2.42-14.19-9.9-32.32-16.08-48.9-11.16-17.58,5.22-30.64,21.92-48.78,24.57-8.12,1.19-21.9-1.67-19.08-12.04,1.66-6.09,18.21-15.14,22.84-20.34,13.14-14.79,21.59-33.86,22.96-53.66Z"/>
      <path class="cls-11" d="M827.8,1043.95c4.45,18.55.67,39.58,10.93,55.66,5.56,8.72,15.32,17.05,12.77,27.07-.61,2.39-2.06,4.69-4.32,5.69-1.77.78-3.78.67-5.7.46-10.43-1.14-20.39-4.92-30.73-6.66-15.61-2.62-31.9-.56-47.16-4.79-15.25-4.23-29.94-18.32-26.66-33.81,1.35-6.35,5.45-11.7,8.73-17.31,9.67-16.53,11.83-35.63,7.97-54.18-2.68-12.89-5.62-24,10.23-28.09,29.16-7.53,58.16,31.87,63.94,55.96Z"/>
      <path class="cls-11" d="M839.91,734.28c-2.55-4.22-2.39-10.38-6.63-12.9-3.66-2.17-9.15.71-9.44,4.95-.28,4.16,3.53,7.84,3.05,11.98-.65,5.57-8.52,8.25-8.87,13.86-.06.92.13,1.89.68,2.63,1.21,1.6,3.59,1.58,5.58,1.33,5.93-.74,11.78-2.09,17.43-4.03,1.6-.55,3.21-1.16,4.49-2.25,2.3-1.97,4.63-7.68,2.59-10.26-1.8-2.29-6.72-1.72-8.88-5.3Z"/>
      <path class="cls-11" d="M750.8,787.93c-1.68-7.12-6.33-13.49-12.6-17.26-2.43-1.46-5.22-2.56-8.04-2.28-5.72.58-9.41,6.62-10.19,12.32-.78,5.7.41,11.51-.14,17.23-1.74,17.9-19.37,29.95-25.78,46.75-2.42,6.34-3.17,13.31-2.15,20.02.34,2.21.9,4.47,2.33,6.19,1.73,2.08,4.43,3.02,6.89,4.16,8.47,3.95,15.2,11.47,18.2,20.32,2.12,6.28,2.41,13,3.55,19.53,1.14,6.53,3.37,13.25,8.38,17.59,5.01,4.34,13.42,5.25,18,.46,3.25-3.41,3.77-8.56,3.65-13.27-.41-16.34-6.3-32.03-8.48-48.23-2.18-16.2.36-34.75,13.08-45.01,4.87-3.93,27.25-13.76,20.59-22.77-3.24-4.38-11.52-1.7-15.84-1.99-8.73-.59-9.69-6.37-11.43-13.76Z"/>
      <path class="cls-11" d="M727.65,790.54c-2.45,11.76,4.1,25.1-1.96,35.48-2.22,3.81-5.85,6.55-8.99,9.65-5.88,5.82-10.33,14.66-7.05,22.26,2.45,5.69,8.52,9.03,11.52,14.45,1.69,3.06,2.29,6.58,3.3,9.93,1.01,3.35,2.61,6.76,5.59,8.61,2.97,1.84,7.58,1.34,9.16-1.78,1.6-3.17-.49-6.84-2.18-9.97-7.26-13.4-7.47-30.38-.55-43.96,3.77-7.39,9.67-14.57,8.81-22.82-.53-5.04-3.56-9.09-5.27-13.72-1.55-4.18-.24-7.19-.86-11.06-1.45-9.02-10.05-4.13-11.52,2.92Z"/>
      <path class="cls-11" d="M433.62,1109.84c16.13.25,32.46,1.46,48.23-1.92,15.77-3.38,31.33-12.24,38.2-26.83,3.8-8.06,4.2-18.73-2.2-24.92-4.94-4.78-12.39-5.58-19.24-6.13-16.85-1.35-33.69-2.7-50.54-4.05-10.96-.88-22.08-1.79-32.42-5.56-26.33-9.6-43.4-37.26-45.62-65.19-.85-10.67.08-21.88-4.41-31.6-3.76-8.15-11.29-14.46-19.97-16.73-8.68-2.27-18.34-.46-25.6,4.8-9.99,7.23-14.73,20.1-14.78,32.42-.05,12.33,4,24.3,8.69,35.7,3.74,9.09,7.94,18.08,10,27.68,2.06,9.61,1.79,20.12-3.06,28.66-6.57,11.56-19.86,17.21-29.96,25.85-7.66,6.55-13.63,15.07-17.17,24.5-2.44,6.5-3.68,14-.62,20.23,4.3,8.76,13.42,8.25,21.09,5.52,10.95-3.89,22.11-7.19,33.37-10.04,22.22-5.63,44.91-9.38,67.76-11.19,12.72-1.01,25.48-1.42,38.24-1.22Z"/>
      <path class="cls-11" d="M490.76,1091.51c7.03-3.11,14.6-8.52,14.41-16.21-.1-4.16-2.66-8-6.04-10.44s-7.48-3.67-11.58-4.42c-15.16-2.77-31.1.4-45.99-3.55-3.9-1.04-7.85-2.57-11.85-1.98-3.99.59-7.88,4.39-6.75,8.27,1.48,5.09,9.55,5.56,11.36,10.54,3.29,9.05-11.28,9.8-11.8,16.62-.57,7.49,12.57,8.73,17.32,9.2,17.28,1.71,35.01-1.01,50.9-8.04Z"/>
      <path class="cls-11" d="M482.73,1070.57c2.24.43,4.54.97,6.36,2.35,1.82,1.38,3.03,3.81,2.33,5.98-.9,2.81-4.31,3.86-7.24,4.17-4.85.51-9.88.19-14.44,1.9-3,1.12-5.62,3.07-8.59,4.26-3.68,1.48-7.85,1.72-11.68.68-2.05-.55-4.34-1.99-4.17-4.11.27-3.51,6.3-3.41,7.61-6.67,2.1-5.22-6.38-5.95-6.36-9.74.02-3.64,6.42-3.66,9.11-3.3,3.3.45,6.37,2.22,9.74,2.72,5.76.84,11.56.66,17.33,1.76Z"/>
      <path class="cls-11" d="M409.89,1064.64c.6,3.91,2.25,7.57,3.54,11.32.46,1.34.83,2.97-.07,4.06-.76.92-2.09,1.04-3.22,1.39-4.31,1.32-6.29,6.16-9.45,9.37-5.28,5.36-13.55,5.93-21.03,6.74-21.89,2.35-42.95,9.42-64.26,14.94-2.48.64-5.08,1.27-7.58.72-2.5-.55-4.86-2.66-4.79-5.23.06-2.23,1.82-4,3.42-5.55,11.5-11.12,21.39-24.37,26.16-39.65,10.1-32.35-4.04-67.04-3.04-100.91.07-2.53.29-5.21,1.76-7.27,1.7-2.38,4.8-3.43,7.72-3.38,9.65.17,16.02,10.13,18.89,19.34,6.76,21.68,4.76,46.54,17.46,65.37,1.71,2.54,3.72,4.97,6.32,6.59,3.41,2.12,7.54,2.69,11.52,3.21,3.27.43,6.55.85,9.83,1.28,12.44,1.62,5.59,9.59,6.84,17.68Z"/>
      <path class="cls-11" d="M380.41,1088.21c4.57-1.2,9.93-3.75,10.11-8.47.11-2.84-1.82-5.63-1.05-8.36.74-2.62,3.55-3.93,5.9-5.29,2.35-1.36,4.76-3.83,3.91-6.41-.85-2.57-4.18-3.12-6.89-3.23-8.11-.32-16.21-.63-24.32-.95-1.99-.08-4.08-.14-5.87.76-4.13,2.07-4.42,7.71-6.35,11.91-3.02,6.59-10.36,9.76-16.54,13.55-4.39,2.69-12.65,7.71-14.73,12.67-3.45,8.22,7.26,3.12,11.86,1.97,14.48-3.62,29.51-4.36,43.95-8.14Z"/>
      <path class="cls-11" d="M348.32,972.63c-1-2.21-2.39-4.55-4.72-5.25-3.68-1.1-7.14,2.6-8.2,6.3-1.67,5.78-.1,12.02,2.36,17.5,2.47,5.48,5.83,10.54,8.04,16.13,2.57,6.5,3.51,13.63,2.72,20.58-.36,3.14-1.05,6.43.05,9.39,3.22,8.66,8.95,1.29,9.36-4.3.46-6.3-1.88-13.39-2.47-19.76-1.26-13.66-1.39-27.85-7.14-40.57Z"/>
      <path class="cls-11" d="M289.88,860.59c-5.27,4.44-9.01,10.67-10.45,17.41-1.3,6.06-.78,12.35-1.18,18.53-.4,6.19-1.95,12.71-6.45,16.97-5.5,5.22-13.79,5.73-21.35,6.3-7.56.57-15.99,1.99-20.43,8.13-3.6,4.97-3.51,11.81-1.66,17.66,1.85,5.85,5.22,11.08,7.87,16.62,7.65,16.01,9.09,34.31,8.31,52.04-.78,17.73-3.63,35.33-4.06,53.08-.11,4.51.08,9.43,2.98,12.89,4.41,5.26,12.69,4.54,19.17,2.29,21.16-7.38,38.03-28.67,35.96-50.98-.69-7.47-3.34-14.6-5.38-21.82-4.28-15.13-5.96-31-4.95-46.69.63-9.81,2.42-19.85,7.72-28.12,7.78-12.17,21.77-18.65,35.16-24.06,3.02-1.22,6.11-2.45,8.53-4.62,2.42-2.17,4.08-5.51,3.34-8.68-.77-3.33-3.86-5.59-5.32-8.68-2.24-4.75-.19-10.46,2.84-14.75,3.03-4.29,7.05-7.91,9.4-12.61,2.35-4.7,2.47-11.18-1.62-14.46-2.18-1.75-10.16-5.32-12.84-5.55-3.89-.33-10.52,4.57-14.76,6.08-10.48,3.73-22.1,5.65-30.85,13.02Z"/>
      <path class="cls-11" d="M305.77,859.57c-5.46,2.01-11.11,4.48-14.55,9.18-7.54,10.26-1.07,25.26-5.41,37.23-1.54,4.26-4.47,8.17-4.57,12.7-.03,1.45.27,2.97,1.21,4.07.77.91,1.91,1.44,3.07,1.72,4.71,1.13,9.4-1.58,13.49-4.19,9.89-6.3,19.79-12.6,29.68-18.9.63-.4,1.26-.81,1.77-1.35,1.65-1.79,1.47-4.66.47-6.89-1-2.22-2.67-4.08-3.85-6.21-2.63-4.73-2.64-10.81-.02-15.55,1.58-2.87,3.99-5.17,5.88-7.85,13.37-18.95-21.03-6.22-27.16-3.96Z"/>
      <path class="cls-11" d="M302.89,877c-1.38,7.21,1.75,15.58-2.57,21.52-1.78,2.45-4.83,4.56-4.53,7.57.03.34.12.69.33.95.3.37.79.5,1.26.59,3.98.78,8.29-.37,11.35-3.03,3.06-2.66,4.79-6.78,4.56-10.83-.11-1.87-.61-3.71-.66-5.58-.16-5.97,11.13-18.58,7.23-23.47-5.38-6.73-16.08,7.67-16.96,12.27Z"/>
      <path class="cls-11" d="M245.34,930.9c-3.86,2.08-6.51,7.1-4.46,10.97,1.87,3.54,6.41,4.45,9.92,6.38,5.54,3.05,8.94,9.57,8.28,15.85-.29,2.78-1.31,5.53-.9,8.29.48,3.31,3.18,6.19,6.46,6.87,3.28.69,6.9-.86,8.68-3.7,4.13-6.62-2.34-15.71.66-22.91.99-2.37,2.92-4.24,4.08-6.54,9.48-18.77-23.21-20.32-32.71-15.22Z"/>
      <path class="cls-11" d="M283.26,1050.07c-3.84,10.49-11.59,21.08-22.71,22.18-6.72.67-14.46-3.85-14.54-10.6-.05-4.44,3.05-8.19,5.48-11.9,6.63-10.1,9.14-22.81,6.84-34.67-.75-3.85-1.98-7.65-2.04-11.57-.1-6.6,5.92-16.91,14.06-13.69,5.19,2.05,4.76,9.49,5.52,14.08,1.41,8.52,6.81,13.79,9.29,21.71,2.49,7.96.9,16.8-1.91,24.46Z"/>
      <path class="cls-11" d="M247.66,936.21c-.19,1.51,1.03,2.88,2.42,3.5,1.39.62,2.95.7,4.43,1.04,5.57,1.28,9.93,6.64,10.04,12.35.04,2.11.07,4.98,2.14,5.41,1.3.27,2.56-.87,2.91-2.15,1.08-3.88-1.9-17.45-5.07-20.59-2.66-2.63-16.2-4.87-16.88.44Z"/>
      <path class="cls-11" d="M268.87,1005.53c-.99-1.05-2.73-1.55-3.91-.71-1.05,6.9,2.5,13.65,2.95,20.62.62,9.54-4.53,18.36-8.62,27-1.37,2.9-2.33,7.02.36,8.76,1.87,1.2,4.42.32,6.1-1.12,2.55-2.18,3.95-5.39,5.04-8.56,2.89-8.42,4.34-17.66,3.72-26.56-.37-5.3-2.01-15.57-5.66-19.42Z"/>
      <path class="cls-11" d="M351.32,878.16c-.85,1.14-1.7,2.48-1.5,3.89.13.96.73,1.78,1.31,2.56,2.83,3.77,5.95,8.23,4.7,12.78-1.22,4.46-6.11,6.8-8.58,10.71-.65,1.03-1.04,2.6-.05,3.32.37.27.86.33,1.31.39,4.76.56,9.52,1.13,14.27,1.69.89.11,1.85.2,2.66-.2.7-.35,1.17-1.03,1.55-1.72,4.22-7.7-.63-17.38,1.17-25.97.53-2.54,1.63-4.91,2.43-7.38,1.6-4.96,3.98-15.08-3.69-13.72-5.61.99-12.41,9.4-15.59,13.66Z"/>
      <path class="cls-11" d="M328.51,819.94c-.74,1.47-1.89,2.83-1.95,4.48-.1,2.5,2.42,4.39,4.88,4.89,2.46.5,5.02.1,7.49.53,7.43,1.27,12.59,9.56,20.13,9.61.58,0,1.22-.07,1.63-.48.32-.32.44-.78.54-1.22.71-3.04,1.17-6.43-.37-9.15-1.62-2.84-4.98-4.15-8.15-4.92-3.18-.77-6.56-1.26-9.19-3.19-2.66-1.95-4.14-5.08-5.9-7.87-1.76-2.79-4.24-5.55-7.53-5.89-5.74-.61.58,8.94-1.57,13.22Z"/>
      <path class="cls-11" d="M795.87,1011.24c-3.74-2.43-7.98-4.37-12.44-4.45-4.46-.08-9.16,2.05-11.18,6.03-1.87,3.68-1.17,8.19.5,11.96,1.67,3.78,4.21,7.09,6.16,10.73,7.48,14.02,4.68,32.78-6.56,44-3.15,3.14-7.18,6.43-6.97,10.87.15,3.14,2.56,5.81,5.39,7.18,2.83,1.37,6.03,1.69,9.16,1.99,4.65.44,9.64.81,13.68-1.53,2.6-1.51,4.49-3.97,6.15-6.47,7.58-11.39,11.98-25.54,9.09-38.91-1.92-8.87-4.28-16.81-5.43-25.71-.93-7.21.04-10.79-7.53-15.7Z"/>
      <path class="cls-11" d="M961.56,1239.74c-6.78-18.62-27.14-28.65-46.56-32.61-19.41-3.96-39.81-3.81-58.31-10.9-11.52-4.42-21.8-11.46-32.49-17.61-11.15-6.42-22.84-11.91-34.91-16.39-15.18-5.64-31.43-9.72-47.48-7.58-16.05,2.14-31.88,11.52-38.08,26.48-3.69,8.9-3.74,18.84-3.42,28.47.92,27.51,4.37,55.52-2.23,82.25-3.45,13.97-9.58,27.18-12.76,41.21-3.18,14.03-3.04,29.78,5.17,41.6"/>
      <path class="cls-11" d="M706.74,1357.51c-5.81-24.9,5.23-50.17,12.31-74.75,7.04-24.47,10.25-50.04,9.45-75.5-.38-12.22-.47-26.97,9.88-33.49,9.38-5.91,21.63-1.15,31.35,4.18,33.31,18.31,65.04,43.43,102.91,46.69,11.37.98,22.9-.1,34.15,1.82,11.37,1.94,22.19,6.98,30.99,14.43,10.58,8.96,20.06,22.11,33.92,22.24"/>
      <path class="cls-11" d="M966.44,1286.04c-19.04,4.19-40.27-5.07-50.16-21.87-4.22-7.17-6.78-15.78-13.46-20.74-5.62-4.17-13.02-4.85-20-5.38-14.94-1.13-29.88-2.26-44.82-3.39-10.25-.78-20.89-1.66-29.83-6.74-17-9.66-25.48-33.02-44.72-36.49-6.53-1.18-14.25.95-17.23,6.88-1.19,2.36-1.51,5.08-1.47,7.72.32,21.88,23.06,38.93,22.34,60.8-.32,9.61-5.22,18.41-10.32,26.56-5.09,8.15-10.62,16.38-12.42,25.83-1.81,9.44,1.19,20.58,9.64,25.16"/>
      <path class="cls-11" d="M788.24,1345.17c-.81-13.01,1.35-26.2,6.28-38.27,2.98-7.3,7.41-14.61,14.57-17.91,7.09-3.27,15.43-1.98,23-3.9,9.54-2.42,16.97-9.61,24.83-15.53,7.86-5.92,17.84-10.93,27.24-8.01,7.6,2.36,12.84,9.39,16.09,16.66,3.25,7.27,5.07,15.15,8.81,22.18,9.2,17.3,30.57,27.16,49.71,22.94"/>
      <path class="cls-11" d="M780.52,1243.03c-5.65-6.74-12.23-14.06-11.83-22.84,5.26-2.58,11.8-.42,16.23,3.42,4.43,3.84,7.33,9.09,10.68,13.9,3.35,4.81,7.53,9.48,13.14,11.16,6.27,1.87,14.26.14,18.45,5.16,3.84,4.6,1.22,12.09-3.64,15.59-4.87,3.5-11.13,4.19-17.04,5.15-5.92.96-12.22,2.57-16.04,7.19-1.51,1.83-2.56,4.06-4.38,5.58-2.79,2.34-7.23,2.43-10.11.19-2.88-2.23-3.9-6.55-2.33-9.84,2.96-6.19,12.84-8.58,15.05-14.53,2.53-6.82-4.1-15.27-8.18-20.13Z"/>
      <path class="cls-11" d="M811.99,1340.95c-1.63-6.69-2.55-13.55-2.73-20.43-.06-2.36-.02-4.79.9-6.96,1.89-4.45,6.94-6.66,11.69-7.54,4.75-.88,9.76-.91,14.16-2.91,5.23-2.38,8.87-7.2,13.36-10.79,4.04-3.22,8.86-5.47,13.93-6.48,5.24-1.05,12.19.33,13.31,5.56.62,2.89-.88,5.98,0,8.8,1.61,5.12,8.96,5.07,13.14,8.43,4.1,3.29,4.45,9.85,1.68,14.32s-7.91,7.01-13.08,7.96"/>
      <path class="cls-11" d="M623.52,1265.87c0-1.48.06-3,.66-4.35,1.43-3.18,5.28-4.29,8.09-6.34,3-2.18,4.89-5.52,7.29-8.35,2.39-2.83,5.84-5.33,9.5-4.78,5.26.8,7.6,7.12,7.77,12.43.17,5.31-.63,11.12,2.35,15.52,2.41,3.56,6.9,5.45,8.85,9.29,2.21,4.35.34,9.79-2.8,13.52s-7.4,6.33-10.99,9.64c-8.29,7.64-12.6,18.58-19.1,27.79-3.03,4.3-10.87,12.34-16.71,7.26-5.11-4.45.43-11.55,2.15-16.33,6.67-18.54,2.85-36.15,2.94-55.3Z"/>
      <path class="cls-5" d="M241.52,649.17c11.38-8.53,24.86-13.67,37.51-20.17,48.8-25.09,84.2-69.91,114.74-115.5,5.48-8.18,11-16.59,18.74-22.67,7.74-6.08,18.29-9.54,27.61-6.36,17.18,5.85,20.42,28.56,19.14,46.66-1.45,20.51-4.85,40.96-3.98,61.5.87,20.54,6.58,41.78,20.78,56.65,8.74,9.14,20.18,15.33,32.1,19.55,27.51,9.73,57.5,9.45,85.91,16.11,28.41,6.67,57.79,23.59,65.08,51.84,9.48,36.76-22.19,72.66-20.39,110.58.9,19.05,10.18,36.55,19.24,53.33,10.56,19.55,21.13,39.1,31.69,58.65,6.63,12.26,13.39,24.95,14.76,38.82,1.38,13.87-3.98,29.39-16.34,35.83-10.8,5.63-24.28,3.1-34.98-2.72-10.7-5.82-19.48-14.53-29.09-22.02-23.1-18.02-51.54-29.09-80.74-31.43-32.71-2.62-65.27,5.44-98.05,7.13-6.45.33-13.19.36-19.03-2.41-5-2.37-8.89-6.61-12.06-11.15-32.38-46.36,3.8-116.51-26.06-164.53-16.29-26.19-47.53-37.92-75.14-51.67-26.02-12.95-50.45-29.07-72.6-47.89-8.47-7.19-19.73-15.44-19.1-27.63.61-11.93,11.28-23.77,20.25-30.5Z"/>
      <path class="cls-11" d="M418.34,903.71c-2.29,21.9,1.99,47.92,21.34,58.43,10.35,5.62,22.75,5.43,34.51,5.11,15.88-.44,31.77-.88,47.65-1.33,13.24-.37,27-.86,38.77-6.96,11.76-6.09,20.85-19.54,17.48-32.35-3.48-13.25-17.96-20.18-31.26-23.46-13.3-3.29-27.9-5.1-37.93-14.43-17.51-16.29-13.12-47.96-31.5-63.26-4.67-3.89-10.43-6.29-16.3-7.87-17.3-4.66-43.36.36-41.58,22.72.74,9.39,4.24,16.87,3.6,26.85-.79,12.27-3.5,24.34-4.78,36.56Z"/>
      <path class="cls-11" d="M531.53,700.44c21.63.12,43.8-1.41,64.41,5.16,20.61,6.57,39.73,23.81,40.52,45.43.51,14.13-6.71,27.34-14.7,39.02-4.89,7.15-10.38,14.25-17.96,18.46-7.58,4.2-17.74,4.83-24.48-.61-11.85-9.58-6.03-28.9-11.67-43.06-4.3-10.79-15.05-17.65-25.93-21.71-10.88-4.07-22.51-6.1-33-11.09-10.49-4.99-20.14-13.95-21.54-25.49-3.34-27.63,31.55-6.18,44.35-6.1Z"/>
      <path class="cls-11" d="M430.37,528.87c-.22-2.95-.8-6.1-2.9-8.19-3.58-3.56-9.71-2.35-14.07.19-13.06,7.62-18.62,23.23-27.06,35.77-10.35,15.39-25.63,26.66-40.59,37.61-25.19,18.44-50.42,36.91-77.33,52.72-6.46,3.8-13.16,7.56-17.97,13.31-4.81,5.75-7.36,14.06-4.25,20.88,2.74,6,9.02,9.45,15,12.24,20.33,9.52,41.82,16.37,62.16,25.88,20.34,9.51,39.93,22.11,52.92,40.41,3.67,5.18,6.84,10.82,11.55,15.08,7.11,6.43,16.93,8.95,26.47,9.88,10.46,1.02,21.3.34,30.95-3.82,9.65-4.16,17.97-12.15,20.85-22.25,3.85-13.52-2.27-28.47,2-41.86,3.31-10.36,12.61-18.98,12.22-29.84-.31-8.6-6.83-15.78-14.07-20.45-7.23-4.66-15.48-7.65-22.48-12.66-15.03-10.77-22.39-29.8-23.41-48.26-1.44-26.08,11.88-51.04,10.02-76.65Z"/>
      <path class="cls-11" d="M489.89,779.05c17.01-14.39,46.4-9.93,58.37,8.87,6.08,9.55,7.79,21.31,13.45,31.11,7.72,13.36,22.97,22,38.4,21.75,6.89-.11,14.99-1.43,19.63,3.66,2.42,2.66,3.14,6.41,3.75,9.95,2.8,16.27,5.56,33.02,14.1,47.14,5.88,9.72,14.21,17.68,21.09,26.72,9.3,12.23,15.83,26.29,22.28,40.23,4.09,8.83,8.16,19.32,3.48,27.85-4.55,8.29-15.44,10.7-24.86,9.98-19.08-1.46-37.16-12.71-46.9-29.18-15.02-25.39-10.54-60.19-29.91-82.43-15.39-17.66-41.6-22.12-58.22-38.62-8.77-8.71-14.21-20.13-21.13-30.37-6.47-9.58-14.64-16.54-22.38-24.87-4.83-5.2-6.41-2.97-4.23-9.35,1.16-3.39,10.12-9.93,13.08-12.44Z"/>
      <path class="cls-3" d="M279.91,651.44c7.73-5.97,16.69-10.08,25.37-14.56,39.96-20.63,75.34-50.06,102.89-85.61,1.67-2.15,4.58-4.53,6.71-2.84.73.58,1.08,1.5,1.34,2.39,2.22,7.7-.66,15.82-2.94,23.51-2.26,7.6-3.97,15.37-5.1,23.22-.94,6.48-1.48,13.04-1.01,19.57.51,7.14,2.23,14.13,3.95,21.07,2.27,9.19,5.04,19.15,12.71,24.69,4.84,3.49,10.94,4.66,16.34,7.21,5.4,2.55,10.55,7.57,9.95,13.51-.21,2.14-1.17,4.14-2.23,6.01-3.11,5.46-7.31,10.27-10.05,15.93-3.59,7.43-4.44,15.84-6.34,23.88-1.9,8.04-5.31,16.34-12.24,20.83-5.11,3.32-11.79,4.08-17.52,2-6.52-2.37-11.33-7.98-14.93-13.92-3.59-5.93-6.29-12.41-10.31-18.06-11.98-16.84-33.43-23.7-53.6-28.21-15.04-3.36-30.62-6.07-44.52-13.04-4.58-2.3-11.31-5.72-10.95-11.77.37-6.2,7.99-12.34,12.48-15.82Z"/>
      <path class="cls-11" d="M453.7,739.52c.98,7.18,1.46,14.99-2.31,21.18-2.85,4.67-7.8,7.76-13.03,9.38-5.22,1.63-10.75,1.94-16.22,2.15-2.38.09-5.08.04-6.72-1.69-2.1-2.21-1.18-6.03.97-8.19,2.15-2.16,5.15-3.18,7.87-4.53,6.51-3.23,11.86-8.71,14.94-15.29,1.8-3.85,4.07-23.37,7.82-24.29,6.75-1.65,6.25,18.26,6.66,21.28Z"/>
      <path class="cls-11" d="M391.39,624.83c-.34,10.79-.26,21.87,3.52,31.99,1.84,4.91,4.5,9.47,7.16,14,2.1,3.59,4.22,7.19,6.93,10.34,3.13,3.63,7.2,6.97,7.98,11.7.67,4.05-1.3,8.02-3.21,11.65-2.11,4.02-4.5,8.31-8.64,10.17-5.52,2.48-12.07-.38-16.54-4.46-4.47-4.08-7.77-9.35-12.47-13.15-3.75-3.03-8.22-4.99-12.63-6.92-11.9-5.2-23.86-10.41-36.39-13.81-3.78-1.02-7.66-1.9-11.04-3.87-3.38-1.97-6.26-5.28-6.57-9.18-.33-4.11,2.26-7.99,5.58-10.44,3.31-2.45,7.3-3.77,11.15-5.25,16.5-6.37,31.54-16.47,43.68-29.34,4.62-4.9,8.92-10.37,10.78-16.84,1-3.47,1.33-7.29,3.48-10.19,1.56-2.1,5.47-3.99,7.86-2.11,2.58,2.04,1.18,6.82.95,9.51-.77,8.72-1.29,17.46-1.56,26.21Z"/>
      <path class="cls-11" d="M346.04,653.7c-2.57.97-5.25,1.89-7.28,3.74-2.03,1.85-3.22,4.94-2.01,7.41.88,1.78,2.74,2.82,4.52,3.7,6.9,3.46,14.06,6.41,21.39,8.8,6.15,2.01,12.77,3.84,17.16,8.6,2.62,2.84,4.28,6.58,7.4,8.85,2.9,2.12,6.89,2.64,10.24,1.36,2.28-.87,4.36-2.78,4.59-5.21.37-3.88-3.71-6.44-6.78-8.84-5.45-4.25-8.98-10.61-10.79-17.28-1.81-6.67-2-13.67-1.71-20.58.36-8.36-6.4-15.86-13.11-7.44-6.58,8.26-13.55,13.07-23.63,16.88Z"/>
      <path class="cls-11" d="M556.31,743.2c6.03,2.97,12.21,6.15,16.51,11.32,5.32,6.39,7.06,15,7.85,23.28.57,5.93,1.16,12.72,5.96,16.24,4.94,3.62,12.07,1.86,17.15-1.56,11.75-7.91,16.94-22.89,17.26-37.05.28-12.78-3.62-26.8-14.33-33.8-2.72-1.78-5.75-3.02-8.8-4.14-23.12-8.55-47.89-11.09-72.36-12.15-5.34-.23-25.23-4.23-26.31,2.94-1.41,9.28,12.13,14.11,18.21,16.79,13.07,5.77,26.03,11.82,38.84,18.14Z"/>
      <path class="cls-11" d="M579.75,749.87c2.86,2.65,5.63,5.49,7.5,8.9,2.26,4.14,3.08,8.9,4.81,13.29,1.05,2.65,3,5.53,5.84,5.48,2.42-.04,4.22-2.2,5.39-4.32,6.87-12.47,3.1-28.45-4.66-40.39-1.93-2.98-4.16-5.86-7.12-7.82-3.33-2.19-7.34-3.05-11.24-3.86-10.76-2.24-21.53-4.48-32.29-6.72-6.06-1.26-15.63-4.39-21.74-2.17-5.54,2.01-4.34,6.33.36,7.91,12.67,4.26,24.63,8.91,35.91,16.25,6.12,3.98,11.9,8.48,17.24,13.45Z"/>
      <path class="cls-11" d="M503.12,782.13c6.48-1.48,13.29-.37,19.68,1.45,5.15,1.47,10.56,3.72,13.27,8.35,2.09,3.58,2.17,7.92,2.82,12.01,1.93,12.17,9.35,23.04,18.98,30.72,9.63,7.68,21.34,12.39,33.3,15.34,2.81.69,5.68,1.31,8.19,2.75,7.91,4.52,9.45,14.96,11.64,23.8,8.91,36.04,41.18,63.42,47.57,99.99.58,3.35.93,6.84-.04,10.1-.98,3.25-3.55,6.22-6.91,6.76-2.29.36-4.62-.43-6.67-1.52-7.27-3.88-11.95-11.44-14.5-19.28-2.54-7.84-3.26-16.13-4.63-24.26-5.45-32.19-22.49-63.19-49.69-81.25-11.27-7.48-23.94-12.62-35.3-19.96-14.11-9.12-25.98-21.57-34.92-35.8-2.06-3.27-4.04-6.64-6.48-9.66-2.25-2.78-5.98-4.47-8.04-7.08-4.56-5.78,7.12-11.41,11.72-12.46Z"/>
      <path class="cls-11" d="M427.67,845.93c-.13-2.95-.04-6.09,1.53-8.59,1.23-1.97,3.25-3.31,5.35-4.31,4.28-2.04,9.02-2.87,13.7-3.61,4.59-.73,9.33-1.39,13.84-.27,9.78,2.43,15.73,12.46,18.34,22.2,2.61,9.73,3.06,20.11,7.23,29.28,2.5,5.5,6.25,10.33,9.96,15.11,2.82,3.62,5.69,7.3,9.45,9.95,4.98,3.51,11.1,4.91,17.05,6.24,6.73,1.5,13.45,3,20.18,4.51,7.29,1.63,15.63,4.11,18.45,11.02,1.01,2.48,1.13,5.28.6,7.9-1.01,5.01-4.45,9.47-9.03,11.73-4.83,2.38-10.46,2.31-15.85,2.19-28.4-.65-56.8-1.31-85.2-1.96-5.9-.14-12.44-.53-16.61-4.7-3.1-3.11-4.21-7.76-4.02-12.15.19-4.39,1.52-8.63,2.65-12.87,1.94-7.26,3.32-14.67,4.15-22.15.71-6.46.98-13.15-1.13-19.3-1.85-5.39-5.23-10.15-7.64-15.3-2.21-4.72-2.75-9.67-2.98-14.91Z"/>
      <path class="cls-11" d="M456.3,847.37c-2.88.52-4.37,3.71-5.03,6.56-.97,4.2-1.15,8.58-.54,12.85,1.53,10.61,7.92,20.8,5.85,31.32-1.57,7.99-7.95,15.59-5.47,23.36,1.61,5.04,6.66,8.28,11.78,9.6,5.12,1.32,10.49,1.15,15.75,1.72,8.5.92,16.67,3.8,25.1,5.22,7.99,1.34,16.2,1.36,24.2.04,2.71-.45,5.77-1.32,6.93-3.81,1.3-2.79-.53-6.05-2.71-8.22-5.24-5.2-12.62-7.6-19.87-9.01-7.24-1.41-14.69-2-21.68-4.36-6.99-2.36-13.71-6.89-16.5-13.72-1.63-3.99-1.79-8.4-2.13-12.7-.63-7.79-1.46-15.4-1.91-23.15-.34-5.93-6.46-17.02-13.76-15.7Z"/>
      <g>
        <line class="cls-11" x1="795.97" y1="226.18" x2="784.16" y2="226.23"/>
        <line class="cls-11" x1="790.09" y1="232.11" x2="790.04" y2="220.3"/>
      </g>
      <g>
        <line class="cls-11" x1="602.63" y1="512.63" x2="590.82" y2="512.68"/>
        <line class="cls-11" x1="596.75" y1="518.56" x2="596.7" y2="506.75"/>
      </g>
      <g>
        <line class="cls-11" x1="333.77" y1="745.4" x2="321.96" y2="745.44"/>
        <line class="cls-11" x1="327.89" y1="751.33" x2="327.84" y2="739.52"/>
      </g>
      <g>
        <line class="cls-11" x1="649.84" y1="1281.25" x2="638.04" y2="1281.3"/>
        <line class="cls-11" x1="643.96" y1="1287.18" x2="643.92" y2="1275.37"/>
      </g>
      <g>
        <line class="cls-11" x1="865" y1="870.47" x2="853.19" y2="870.52"/>
        <line class="cls-11" x1="859.12" y1="876.4" x2="859.07" y2="864.59"/>
      </g>
      <polygon class="cls-12" points="352.15 193.13 341.4 186.97 341.45 199.36 352.15 193.13 341.4 186.97 341.45 199.36 352.15 193.13"/>
      <polygon class="cls-12" points="835.25 611.02 824.5 604.87 824.55 617.26 835.25 611.02 824.5 604.87 824.55 617.26 835.25 611.02"/>
      <polygon class="cls-12" points="489.01 1171.88 478.26 1165.73 478.31 1178.11 489.01 1171.88 478.26 1165.73 478.31 1178.11 489.01 1171.88"/>
      <polygon class="cls-12" points="199.59 900.89 188.84 894.73 188.89 907.12 199.59 900.89 188.84 894.73 188.89 907.12 199.59 900.89"/>
      <polygon class="cls-12" points="780.75 284.91 770 278.76 770.05 291.14 780.75 284.91 770 278.76 770.05 291.14 780.75 284.91"/>
    </g>
  </g>
</svg>