<?xml version="1.0" encoding="UTF-8"?>
<svg id="Calque_1" data-name="Calque 1" xmlns="http://www.w3.org/2000/svg" viewBox="0 0 81.79 81.93">
  <defs>
    <style>
      .cls-1 {
        fill: #fff;
      }
    </style>
  </defs>
  <path class="cls-1" d="M40.44.02c-3.35.55-4.99,16.57.88,16,4.29-.41,3.58-16.73-.88-16ZM12.05,12.19c-3.38,3.38,8.39,14.97,11.33,10.83,2.5-3.52-8.1-14.06-11.33-10.83ZM69.59,12.19c-3.38-3.38-14.97,8.39-10.83,11.33,3.52,2.5,14.06-8.1,10.83-11.33ZM35.55,21.19c-19.96,4.07-19.38,36.44.83,39.71,33.09,5.36,31.97-46.41-.83-39.71ZM2.53,38.17c-3.42,1.02-3.34,4.59,0,5.58,2.2.66,12.44.93,13.2-1.4l-.34-3.47c-.98-1.37-10.88-1.31-12.86-.72ZM67.48,38.11c-2.44.79-2.38,4.93,0,5.7s13.74.92,14.29-2.47c.7-4.29-11.85-4.02-14.29-3.23ZM12.05,69.73c3.23,3.24,13.83-7.3,11.33-10.83-2.94-4.15-14.71,7.45-11.33,10.83ZM69.59,69.73c3.38-3.38-8.39-14.97-11.33-10.83-2.5,3.52,8.1,14.06,11.33,10.83ZM39.43,66.05c-2.68.88-2.89,16.62,1.78,15.85,3.77-.62,3.26-14.4,1.69-15.51l-3.47-.34Z"/>
  <path d="M35.55,21.19c32.8-6.69,33.92,45.07.83,39.71-20.21-3.28-20.79-35.64-.83-39.71ZM37.55,27.2c-17.05,3.5-12.35,31.42,6.55,27.53,17.05-3.5,12.35-31.42-6.55-27.53Z"/>
  <path d="M12.05,12.19c3.23-3.24,13.83,7.3,11.33,10.83-2.94,4.15-14.71-7.45-11.33-10.83Z"/>
  <path d="M69.59,12.19c3.24,3.23-7.3,13.83-10.83,11.33-4.15-2.94,7.45-14.71,10.83-11.33Z"/>
  <path d="M12.05,69.73c-3.38-3.38,8.39-14.97,11.33-10.83,2.5,3.52-8.1,14.06-11.33,10.83Z"/>
  <path d="M69.59,69.73c-3.23,3.24-13.83-7.3-11.33-10.83,2.94-4.15,14.71,7.45,11.33,10.83Z"/>
  <path d="M40.44.02c4.46-.73,5.16,15.59.88,16-5.87.57-4.22-15.45-.88-16Z"/>
  <path d="M2.53,38.17c1.98-.59,11.89-.66,12.86.72l.34,3.47c-.76,2.32-11,2.05-13.2,1.4-3.34-1-3.42-4.56,0-5.58Z"/>
  <path d="M67.48,38.11c2.44-.79,14.99-1.06,14.29,3.23-.55,3.39-11.88,3.25-14.29,2.47s-2.44-4.91,0-5.7Z"/>
  <path d="M39.43,66.05l3.47.34c1.57,1.11,2.07,14.89-1.69,15.51-4.66.76-4.46-14.97-1.78-15.85Z"/>
</svg>