<?xml version="1.0" encoding="UTF-8"?>
<svg id="Calque_1" data-name="Calque 1" xmlns="http://www.w3.org/2000/svg" viewBox="0 0 81.77 81.65">
  <defs>
    <style>
      .cls-1 {
        fill: #fff;
      }
    </style>
  </defs>
  <g>
    <path class="cls-1" d="M35.53,21.19c32.8-6.69,33.92,45.07.83,39.71-20.21-3.28-20.79-35.64-.83-39.71ZM37.53,27.2c-17.05,3.5-12.35,31.42,6.55,27.53,17.05-3.5,12.35-31.42-6.55-27.53Z"/>
    <path class="cls-1" d="M12.03,12.19c3.23-3.24,13.83,7.3,11.33,10.83-2.94,4.15-14.71-7.45-11.33-10.83Z"/>
    <path class="cls-1" d="M69.58,12.19c3.24,3.23-7.3,13.83-10.83,11.33-4.15-2.94,7.45-14.71,10.83-11.33Z"/>
    <path class="cls-1" d="M12.03,69.73c-3.38-3.38,8.39-14.97,11.33-10.83,2.5,3.52-8.1,14.06-11.33,10.83Z"/>
    <path class="cls-1" d="M69.58,69.73c-3.23,3.24-13.83-7.3-11.33-10.83,2.94-4.15,14.71,7.45,11.33,10.83Z"/>
    <path class="cls-1" d="M40.42.02c4.46-.73,5.16,15.59.88,16-5.87.57-4.22-15.45-.88-16Z"/>
    <path class="cls-1" d="M67.46,38.11c2.44-.79,14.99-1.06,14.29,3.23-.55,3.39-11.88,3.25-14.29,2.47s-2.44-4.91,0-5.7Z"/>
  </g>
  <path class="cls-1" d="M0,41.08c-.08-4.57,14.86-4.87,15.66-.62C16.6,45.45.09,45.85,0,41.08Z"/>
  <path class="cls-1" d="M41,65.96c4.57.05,4.45,14.99.19,15.67-5.02.8-4.97-15.72-.19-15.67Z"/>
</svg>