<?xml version="1.0" encoding="UTF-8"?>
<svg id="MOON" xmlns="http://www.w3.org/2000/svg" version="1.1" viewBox="0 0 81.77 81.65">
  <!-- Generator: Adobe Illustrator 30.0.0, SVG Export Plug-In . SVG Version: 2.1.1 Build 123)  -->
  <defs>
    <style>
      .st0 {
        fill: #fff;
      }
    </style>
  </defs>
  <path class="st0" d="M47.23,40.07c5.61,5.82,13.07,7.67,20.76,9.12,4.14,3.14-6.56,13.95-9.33,15.95C31.4,84.89-3.29,50.23,16.26,22.75c4.06-5.7,14.61-13.71,21.89-11.05.42,9.95,1.86,20.88,9.08,28.37ZM33.46,16.8c-26.48,8.16-20.79,47.27,6.35,48.83,7.75.45,19.49-4.96,22.27-12.64-17.72-2.04-28.9-19.15-28.62-36.2h0Z"/>
  <path class="st0" d="M51.56,10.92c1.83,4.06,1.96,5.27,6.3,7.14-4.34,1.87-4.47,3.08-6.3,7.14-1.83-4.06-1.96-5.27-6.3-7.14,4.34-1.87,4.47-3.08,6.3-7.14Z"/>
  <path class="st0" d="M64.99,25.17c1.83,4.06,1.96,5.27,6.3,7.14-4.34,1.87-4.47,3.08-6.3,7.14-1.83-4.06-1.96-5.27-6.3-7.14,4.34-1.87,4.47-3.08,6.3-7.14Z"/>
</svg>