<?xml version="1.0" encoding="UTF-8"?>
<svg id="Calque_1" data-name="Calque 1" xmlns="http://www.w3.org/2000/svg" viewBox="0 0 72.16 71.32">
  <path d="M43.58,34.63c6.67,6.91,15.52,9.11,24.66,10.83,4.91,3.73-7.8,16.57-11.08,18.95C24.78,87.87-16.43,46.69,6.79,14.04,11.61,7.27,24.14-2.25,32.79.92c.5,11.82,2.21,24.81,10.79,33.71ZM27.22,6.98c-31.46,9.69-24.7,56.15,7.54,58.01,9.21.53,23.15-5.9,26.46-15.01-21.05-2.43-34.33-22.75-34-43Z"/>
  <path d="M48.73,0c2.17,4.82,2.32,6.26,7.48,8.48-5.16,2.22-5.31,3.66-7.48,8.48-2.17-4.82-2.32-6.26-7.48-8.48,5.16-2.22,5.31-3.66,7.48-8.48Z"/>
  <path d="M64.68,16.92c2.17,4.82,2.32,6.26,7.48,8.48-5.16,2.22-5.31,3.66-7.48,8.48-2.17-4.82-2.32-6.26-7.48-8.48,5.16-2.22,5.31-3.66,7.48-8.48Z"/>
</svg>